<?xml version="1.0" encoding="UTF-8" standalone="no"?>
<svg
   viewBox="0 0 170 170"
   version="1.1"
   id="svg22"
   sodipodi:docname="avatar.svg"
   width="170"
   height="170"
   inkscape:version="1.1.1 (1:1.1+202109281949+c3084ef5ed)"
   xmlns:inkscape="http://www.inkscape.org/namespaces/inkscape"
   xmlns:sodipodi="http://sodipodi.sourceforge.net/DTD/sodipodi-0.dtd"
   xmlns:xlink="http://www.w3.org/1999/xlink"
   xmlns="http://www.w3.org/2000/svg"
   xmlns:svg="http://www.w3.org/2000/svg"
   xmlns:rdf="http://www.w3.org/1999/02/22-rdf-syntax-ns#"
   xmlns:cc="http://creativecommons.org/ns#"
   xmlns:dc="http://purl.org/dc/elements/1.1/">
  <title
     id="title1916">redgnus avatar</title>
  <defs
     id="defs26">
    <color-profile
       name="sRGB"
       xlink:href="file:///usr/share/color/icc/colord/sRGB.icc"
       id="color-profile1921" />
    <marker
       style="overflow:visible"
       id="Arrow1Lstart"
       refX="0"
       refY="0"
       orient="auto"
       inkscape:stockid="Arrow1Lstart"
       inkscape:isstock="true">
      <path
         transform="matrix(0.8,0,0,0.8,10,0)"
         style="fill:context-stroke;fill-rule:evenodd;stroke:context-stroke;stroke-width:1pt"
         d="M 0,0 5,-5 -12.5,0 5,5 Z"
         id="path1287" />
    </marker>
    <filter
       style="color-interpolation-filters:sRGB"
       inkscape:label="Drop Shadow"
       id="filter1864"
       x="-0.060675515"
       y="-0.063036246"
       width="1.171914"
       height="1.1786027">
      <feFlood
         flood-opacity="0.498039"
         flood-color="rgb(0,0,0)"
         result="flood"
         id="feFlood1854" />
      <feComposite
         in="flood"
         in2="SourceGraphic"
         operator="in"
         result="composite1"
         id="feComposite1856" />
      <feGaussianBlur
         in="composite1"
         stdDeviation="3"
         result="blur"
         id="feGaussianBlur1858" />
      <feOffset
         dx="6"
         dy="6"
         result="offset"
         id="feOffset1860" />
      <feComposite
         in="SourceGraphic"
         in2="offset"
         operator="over"
         result="composite2"
         id="feComposite1862" />
    </filter>
    <filter
       style="color-interpolation-filters:sRGB"
       inkscape:label="Drop Shadow"
       id="filter1894"
       x="-0.067188973"
       y="-0.067188973"
       width="1.1759381"
       height="1.1759381">
      <feFlood
         flood-opacity="0.498039"
         flood-color="rgb(0,0,0)"
         result="flood"
         id="feFlood1884" />
      <feComposite
         in="flood"
         in2="SourceGraphic"
         operator="in"
         result="composite1"
         id="feComposite1886" />
      <feGaussianBlur
         in="composite1"
         stdDeviation="3"
         result="blur"
         id="feGaussianBlur1888" />
      <feOffset
         dx="6"
         dy="6"
         result="offset"
         id="feOffset1890" />
      <feComposite
         in="SourceGraphic"
         in2="offset"
         operator="over"
         result="composite2"
         id="feComposite1892" />
    </filter>
  </defs>
  <sodipodi:namedview
     id="namedview24"
     pagecolor="#ffffff"
     bordercolor="#666666"
     borderopacity="1.0"
     inkscape:pageshadow="2"
     inkscape:pageopacity="0.0"
     inkscape:pagecheckerboard="0"
     showgrid="false"
     width="170px"
     inkscape:zoom="4"
     inkscape:cx="121.125"
     inkscape:cy="84.375"
     inkscape:window-width="1920"
     inkscape:window-height="1009"
     inkscape:window-x="0"
     inkscape:window-y="34"
     inkscape:window-maximized="1"
     inkscape:current-layer="svg22" />
  <circle
     style="fill:#800080;stroke:#d90909;stroke-width:5;stroke-linejoin:round;stroke-miterlimit:4;stroke-dasharray:none;stroke-dashoffset:25;stroke-opacity:1;filter:url(#filter1894)"
     id="path50"
     cx="81.88446"
     cy="81.88446"
     r="72.184464" />
  <g
     id="g20"
     transform="translate(11.245561,12)"
     style="filter:url(#filter1864)">
    <g
       id="g8">
      <path
         d="M 121.59,60.83 107.66,56.34 C 98.75,53.4 93.53,46.19 91.08,37.13 L 84.95,7.27 C 84.79,6.68 84.4,5.89 83.2,5.89 c -1.01,0 -1.59,0.79 -1.75,1.38 L 75.32,37.14 C 72.86,46.2 67.65,53.41 58.74,56.35 l -13.93,4.49 c -1.97,0.64 -2,3.42 -0.04,4.09 l 14.03,4.83 c 8.88,2.95 14.06,10.15 16.52,19.17 l 6.14,29.53 c 0.16,0.59 0.49,1.65 1.75,1.65 1.33,0 1.59,-1.06 1.75,-1.65 L 91.1,88.93 C 93.56,79.9 98.74,72.7 107.62,69.76 l 14.03,-4.83 c 1.94,-0.68 1.91,-3.46 -0.06,-4.1 z"
         fill="#fdd835"
         id="path2" />
      <path
         d="m 122.91,62.08 c -0.22,-0.55 -0.65,-1.03 -1.32,-1.25 L 107.66,56.34 C 98.75,53.4 93.53,46.19 91.08,37.13 L 84.95,7.27 C 84.86,6.93 84.54,6.31 84.17,6.13 l 1.98,29.97 c 1.47,13.68 2.73,20.12 13.65,22 9.38,1.62 20.23,3.48 23.11,3.98 z"
         fill="#ffee58"
         id="path4" />
      <path
         d="m 122.94,63.64 -24.16,5.54 c -8.51,2.16 -13.2,7.09 -13.2,19.99 l -2.37,30.94 c 0.81,-0.08 1.47,-0.52 1.75,-1.65 L 91.1,88.93 C 93.56,79.9 98.74,72.7 107.62,69.76 l 14.03,-4.83 c 0.66,-0.24 1.08,-0.73 1.29,-1.29 z"
         fill="#f4b400"
         id="path6" />
    </g>
    <g
       id="g16">
      <path
         d="M 41.81,86.81 C 33.48,84.06 32.72,80.96 31.32,75.73 L 27.83,63.49 c -0.21,-0.79 -2.27,-0.79 -2.49,0 L 22.97,74.8 c -1.41,5.21 -4.41,9.35 -9.53,11.04 l -8.16,3.54 c -1.13,0.37 -1.15,1.97 -0.02,2.35 l 8.22,2.91 c 5.1,1.69 8.08,5.83 9.5,11.02 l 2.37,10.82 c 0.22,0.79 2.27,0.79 2.48,0 l 2.78,-10.77 c 1.41,-5.22 3.57,-9.37 10.5,-11.07 l 7.72,-2.91 c 1.13,-0.39 1.12,-1.99 -0.02,-2.36 z"
         fill="#fdd835"
         id="path10" />
      <path
         d="m 28.49,75.55 c 0.85,7.86 1.28,10.04 7.65,11.67 l 13.27,2.59 C 49.27,89.62 49.07,89.46 48.8,89.38 l -7,-2.57 C 34.49,84.31 32.47,81.13 31.1,74.77 29.73,68.41 28.27,64.26 28.27,64.26 c -0.51,-1.37 -1.24,-1.3 -1.24,-1.3 z"
         fill="#ffee58"
         id="path12" />
      <path
         d="m 28.73,102.99 c 0,-7.41 4.05,-11.08 10.49,-11.08 L 49.24,91.5 c 0,0 -0.58,0.77 -1.59,1.01 l -6.54,2.13 c -5.55,2.23 -8.08,3.35 -9.8,10.94 0,0 -2.22,8.83 -2.64,9.76 -0.58,1.3 -1.27,1.57 -1.27,1.57 z"
         fill="#f4b400"
         id="path14" />
    </g>
    <path
       d="m 59.74,28.14 c 0.56,-0.19 0.54,-0.99 -0.03,-1.15 l -7.72,-2.08 c -1.62,-0.44 -2.88,-1.69 -3.34,-3.3 L 45.61,9.06 C 45.46,8.45 44.59,8.45 44.44,9.07 l -2.86,12.5 c -0.44,1.66 -1.74,2.94 -3.4,3.37 l -7.67,1.99 c -0.57,0.15 -0.61,0.95 -0.05,1.15 l 8.09,2.8 c 1.45,0.5 2.57,1.68 3.01,3.15 l 2.89,11.59 c 0.15,0.6 1.01,0.61 1.16,0 L 48.6,33.99 c 0.45,-1.47 1.58,-2.64 3.04,-3.13 z"
       fill="#f4b400"
       stroke="#f4b400"
       stroke-miterlimit="10"
       id="path18" />
  </g>
  <metadata
     id="metadata1914">
    <rdf:RDF>
      <cc:Work
         rdf:about="">
        <cc:license
           rdf:resource="http://creativecommons.org/licenses/by-sa/4.0/" />
        <dc:title>redgnus avatar</dc:title>
        <dc:subject>
          <rdf:Bag>
            <rdf:li>favicon</rdf:li>
          </rdf:Bag>
        </dc:subject>
        <dc:date>2021</dc:date>
        <dc:creator>
          <cc:Agent>
            <dc:title>Pablo Hörtner</dc:title>
          </cc:Agent>
        </dc:creator>
        <dc:rights>
          <cc:Agent>
            <dc:title>All rights reserved.</dc:title>
          </cc:Agent>
        </dc:rights>
        <dc:description>redgnus · 100% FREE SOFTWARE</dc:description>
      </cc:Work>
      <cc:License
         rdf:about="http://creativecommons.org/licenses/by-sa/4.0/">
        <cc:permits
           rdf:resource="http://creativecommons.org/ns#Reproduction" />
        <cc:permits
           rdf:resource="http://creativecommons.org/ns#Distribution" />
        <cc:requires
           rdf:resource="http://creativecommons.org/ns#Notice" />
        <cc:requires
           rdf:resource="http://creativecommons.org/ns#Attribution" />
        <cc:permits
           rdf:resource="http://creativecommons.org/ns#DerivativeWorks" />
        <cc:requires
           rdf:resource="http://creativecommons.org/ns#ShareAlike" />
      </cc:License>
    </rdf:RDF>
  </metadata>
</svg>
