<?xml version="1.0" encoding="UTF-8" standalone="no"?>
<!-- Created with Inkscape (http://www.inkscape.org/) -->

<svg
   width="215mm"
   height="68mm"
   viewBox="0 0 215 68"
   version="1.1"
   id="svg5"
   sodipodi:docname="font-specimen.svg"
   inkscape:version="1.1.1 (1:1.1+202109281949+c3084ef5ed)"
   xmlns:inkscape="http://www.inkscape.org/namespaces/inkscape"
   xmlns:sodipodi="http://sodipodi.sourceforge.net/DTD/sodipodi-0.dtd"
   xmlns="http://www.w3.org/2000/svg"
   xmlns:svg="http://www.w3.org/2000/svg">
  <sodipodi:namedview
     id="namedview14"
     pagecolor="#505050"
     bordercolor="#eeeeee"
     borderopacity="1"
     inkscape:pageshadow="0"
     inkscape:pageopacity="0"
     inkscape:pagecheckerboard="0"
     inkscape:document-units="mm"
     showgrid="false"
     inkscape:zoom="2"
     inkscape:cx="406.75"
     inkscape:cy="94.25"
     inkscape:window-width="1920"
     inkscape:window-height="1009"
     inkscape:window-x="0"
     inkscape:window-y="34"
     inkscape:window-maximized="1"
     inkscape:current-layer="svg5"
     height="70mm" />
  <defs
     id="defs2">
    <filter
       style="color-interpolation-filters:sRGB"
       id="filter5945"
       x="-0.039667574"
       y="-0.16614858"
       width="1.1102448"
       height="1.4617689">
      <feFlood
         flood-opacity="0.498039"
         flood-color="rgb(0,0,0)"
         result="flood"
         id="feFlood5935" />
      <feComposite
         in="flood"
         in2="SourceGraphic"
         operator="in"
         result="composite1"
         id="feComposite5937" />
      <feGaussianBlur
         in="composite1"
         stdDeviation="3"
         result="blur"
         id="feGaussianBlur5939" />
      <feOffset
         dx="6"
         dy="6"
         result="offset"
         id="feOffset5941" />
      <feComposite
         in="SourceGraphic"
         in2="offset"
         operator="over"
         result="composite2"
         id="feComposite5943" />
    </filter>
  </defs>
  <g
     id="layer1"
     transform="translate(3.8421976,5.8715005)">
    <g
       aria-label="ABCDEFGH 0123456789 abcdefgh äâáè€öü@!?"
       id="text1925"
       style="font-size:22.5778px;line-height:1.25;font-family:'Nerko One';-inkscape-font-specification:'Nerko One';letter-spacing:0px;word-spacing:0px;fill:#800080;filter:url(#filter5945)">
      <path
         d="m 6.1391387,2.8794893 q -0.022578,0 0.067733,-0.2483558 0.112889,-0.2709336 0.4967116,-0.5192894 0.3838226,-0.2483558 1.2643568,-0.2709336 0.790223,-0.022578 1.1966235,0.2032002 0.4064004,0.2032002 0.5418672,0.4064004 0.1580446,0.2032002 0.1580446,0.2032002 0,0 0.2483566,0.5870228 0.248355,0.5870229 0.677334,1.5578683 0.428978,0.9482676 0.948267,2.1223133 0.51929,1.1740456 1.038579,2.3932468 0.541867,1.1966235 0.993423,2.2577805 0.474134,1.038578 0.790223,1.761068 0.31609,0.699912 0.406401,0.880534 0.2032,0.428979 0.225778,0.609601 0.02258,0.180622 -0.02258,0.248356 -0.02258,0.04515 -0.02258,0.06773 -0.158044,0.316089 -0.632178,0.541867 -0.451556,0.248356 -1.106312,0.270934 -0.903113,0.02258 -1.309513,-0.2032 -0.4064,-0.2032 -0.541867,-0.428978 -0.112889,-0.203201 -0.09031,-0.180623 0,0 -0.248356,-0.519289 -0.225778,-0.51929 -0.541867,-1.241779 -0.31609,-0.745068 -0.587023,-1.354668 0,0 -0.3160898,0 -0.2935114,0 -0.6999118,0 -0.4064005,0 -0.7224897,0 -0.2935114,0 -0.2935114,0 -0.090311,0.316089 -0.1806224,0.790223 -0.090311,0.451556 -0.1580446,0.8128 -0.067733,0.361245 -0.067733,0.361245 0,0 -0.112889,0.270934 -0.090311,0.270934 -0.5192894,0.541867 -0.4289782,0.270934 -1.4224015,0.270934 -0.7450674,0 -1.12889,-0.158045 -0.3612448,-0.180622 -0.4967116,-0.4064 -0.112889,-0.225778 -0.112889,-0.383823 0,-0.180622 0,-0.180622 0.045156,-0.225778 0.1806224,-0.92569 0.1580446,-0.72249 0.3612448,-1.715913 0.225778,-1.016001 0.451556,-2.1448911 0.2483558,-1.12889 0.4741338,-2.2352022 0.225778,-1.1063123 0.4064004,-2.0094243 0.1806225,-0.9256898 0.2935115,-1.4675571 0.112889,-0.564445 0.112889,-0.564445 z m 2.370669,3.5672925 q -0.022578,0.090311 -0.045156,0.3612449 l -0.090311,0.6321784 q -0.045156,0.5192894 -0.112889,1.1063122 -0.067733,0.5870228 -0.1354668,1.1063123 -0.045156,0.2709336 -0.067733,0.338667 h 0.2935114 q 0.2709336,0 0.5870229,-0.022578 Q 9.2548752,9.946341 9.503231,9.946341 9.4129198,9.7657186 9.3451864,9.4947849 9.3000308,9.2012735 9.2322974,8.9529177 9.0968306,8.4336283 8.9162082,7.8691833 8.7581635,7.3047383 8.6226967,6.8080267 8.5549633,6.537093 8.5098077,6.4467818 Z"
         style="fill:#d90909;stroke:#000000"
         id="path24796" />
      <path
         d="m 16.750676,13.8523 q 0,0 -0.04515,-0.632178 -0.02258,-0.632178 -0.09031,-1.625602 Q 16.570056,10.601097 16.502327,9.4722071 16.434597,8.3207393 16.36686,7.2821605 16.3217,6.2210038 16.29913,5.521092 16.27655,4.7986024 16.27655,4.6631356 16.32171,4.279313 16.34428,4.053535 q 0.04516,-0.2483558 0.225778,-0.338667 0.135467,-0.067733 0.06773,-0.1806225 -0.04516,-0.112889 -0.02258,-0.2935114 0.04515,-0.1806224 0.451556,-0.3838226 0.316089,-0.1580446 0.993423,-0.451556 0.699912,-0.3160892 1.670757,-0.4967116 0.970846,-0.1806224 2.077158,0.045156 1.106312,0.2032002 2.235202,1.0611566 0.767645,0.5870229 0.92569,1.2192013 0.180622,0.6096006 0,1.1966234 -0.180623,0.564445 -0.51929,1.0385788 -0.338667,0.4515561 -0.632178,0.7224897 -0.270934,0.2709336 -0.270934,0.2709336 0,0 0.31609,0.112889 0.316089,0.112889 0.767645,0.3612448 0.474134,0.2483558 0.948268,0.677334 0.474133,0.4064004 0.790223,1.0160011 0.338667,0.6095998 0.361244,1.4224008 0.04516,1.377246 -0.857956,2.25778 -0.880534,0.880535 -2.46098,1.332091 -1.557869,0.428978 -3.589871,0.428978 -1.174045,0 -1.806224,-0.180623 Q 17.382853,14.710257 17.111919,14.461901 16.840986,14.213545 16.79583,14.032923 16.75067,13.8523 16.75067,13.8523 Z m 3.002848,-9.7310316 q 0,0 0,0.3612448 0.02258,0.338667 0.02258,0.8128008 0.02258,0.4741338 0.04515,0.8805342 0.04516,0.3838226 0.09031,0.4741339 0.04516,0.090311 0.316089,-0.045156 0.270938,-0.1354665 0.56445,-0.4064001 0.316089,-0.2935114 0.496711,-0.6547562 0.203201,-0.3838226 0.135467,-0.7450674 -0.158044,-0.7224896 -0.654756,-0.8353786 -0.496712,-0.112889 -1.016001,0.1580446 z m 0.496712,5.2380497 0.158044,3.7479149 q 0,0 0.316089,0 0.31609,0 0.767646,-0.06773 0.451556,-0.06773 0.880534,-0.293512 0.451556,-0.225778 0.699912,-0.654756 0.270933,-0.451556 0.180622,-1.219201 -0.09031,-0.767645 -0.428978,-1.1288902 -0.316089,-0.3838227 -0.767645,-0.4967117 -0.428979,-0.112889 -0.857957,-0.067733 -0.4064,0.022578 -0.677334,0.112889 -0.270933,0.067733 -0.270933,0.067733 z"
         style="fill:#d90909;stroke:#000000"
         id="path24798" />
      <path
         d="m 36.619139,12.158965 q 0,0 -0.06773,0.293512 -0.06773,0.293511 -0.293511,0.722489 -0.225778,0.428979 -0.699912,0.880535 -0.451556,0.428978 -1.241779,0.722489 -0.790223,0.293512 -1.986847,0.293512 -1.444979,0 -2.370669,-0.451556 -0.903112,-0.451556 -1.422401,-1.219202 -0.51929,-0.790223 -0.745068,-1.73849 -0.225778,-0.970846 -0.270933,-2.0094244 -0.02258,-1.0385789 0.02258,-2.0094243 0.04516,-0.9934232 0.06773,-1.7836463 0.02258,-1.1966234 0.428978,-1.919113 0.428978,-0.7450675 1.038579,-1.1288901 0.632178,-0.4064004 1.309512,-0.564445 0.677334,-0.1580446 1.219202,-0.1806224 1.106312,-0.067733 2.235202,0.3838226 1.12889,0.451556 1.828802,1.6707573 0.361245,0.6096006 0.2032,0.9708454 -0.135467,0.338667 -0.519289,0.4967116 -0.361245,0.1580446 -0.745068,0.2032002 -0.383822,0.045156 -0.496711,0.045156 -0.72249,0 -1.106313,-0.2032002 -0.361245,-0.2032002 -0.519289,-0.4741338 -0.135467,-0.2935114 -0.135467,-0.5192894 0,-0.1806224 -0.112889,-0.3612448 -0.09031,-0.2032002 -0.248356,-0.2709336 -0.135467,-0.067733 -0.293511,0.1580446 -0.135467,0.225778 -0.225778,0.8805342 -0.06773,0.5192894 -0.09031,1.3772458 0,0.8353787 0.02258,1.7836463 0.02258,0.9256898 0.04516,1.7610685 0.04516,0.8353778 0.06773,1.3772458 0.04516,0.519289 0.04516,0.519289 0,0 0.04516,0.338667 0.06773,0.338667 0.248355,0.677334 0.203201,0.338667 0.587023,0.361245 0.293512,0.02258 0.451556,-0.180623 0.180623,-0.225778 0.248356,-0.496711 0.09031,-0.293512 0.112889,-0.496712 0.02258,-0.225778 0.02258,-0.225778 0,0 -0.02258,-0.180622 0,-0.180623 0.112889,-0.406401 0.112889,-0.248355 0.474134,-0.4064 0.361245,-0.180622 1.106312,-0.158045 0.745068,0.02258 1.106312,0.248356 0.361245,0.2032 0.474134,0.496712 0.112889,0.270933 0.09031,0.496711 0,0.225778 0,0.225778 z"
         style="fill:#d90909;stroke:#000000"
         id="path24800" />
      <path
         d="m 38.335046,13.603945 q -0.09031,-1.332091 -0.2032,-2.77707 Q 38.018957,9.3593181 37.906068,8.0272279 37.815757,6.6951377 37.748023,5.7694478 37.68029,4.8211802 37.635134,4.5502466 q -0.06773,-0.5192894 0.04516,-0.6999118 0.135467,-0.2032002 0.135467,-0.2032002 0,0 -0.158045,-0.1580447 -0.158044,-0.1806224 -0.158044,-0.3838226 0,-0.3612448 0.428978,-0.5870228 0.451556,-0.225778 1.016001,-0.338667 0.564445,-0.112889 0.993423,-0.1580446 0.451556,-0.045156 0.451556,-0.045156 0,0 0.451556,-0.022578 0.451556,-0.022578 1.151468,0.045156 0.72249,0.067733 1.53529,0.3612448 0.835379,0.2709336 1.580446,0.8805342 0.767646,0.6096007 1.286935,1.6707573 0.51929,1.0385788 0.632179,2.6641805 0.135466,1.919113 -0.180623,3.2286253 -0.293511,1.309513 -0.903112,2.144891 -0.587023,0.812801 -1.354668,1.264357 -0.767645,0.451556 -1.603024,0.632179 -0.812801,0.158044 -1.557868,0.2032 -0.72249,0.02258 -1.264357,0.02258 -0.790223,0 -1.196623,-0.225778 -0.383823,-0.225778 -0.51929,-0.496712 -0.112889,-0.293511 -0.112889,-0.519289 0,-0.225778 0,-0.225778 z m 2.415825,-9.5955656 0.993423,9.1440096 q 0,0 0.2032,-0.02258 0.203201,-0.02258 0.496712,-0.2032 0.316089,-0.180623 0.587023,-0.654757 0.293511,-0.474133 0.451556,-1.33209 0.158044,-0.880534 0.06773,-2.2803577 Q 43.460207,6.8983379 43.166696,5.9274924 42.895762,4.9340692 42.489362,4.505091 42.105539,4.0761128 41.653983,4.0083794 q -0.451556,-0.067733 -0.903112,0 z"
         style="fill:#d90909;stroke:#000000"
         id="path24802" />
      <path
         d="m 48.088629,3.6245568 q 0,0 -0.04515,-0.1806225 -0.04516,-0.2032002 0.02258,-0.4741338 0.09031,-0.2709336 0.406401,-0.4967116 0.338667,-0.225778 1.061156,-0.2935114 0.72249,-0.067733 1.625602,-0.112889 0.92569,-0.045156 1.761068,-0.090311 0.857957,-0.045156 1.399824,-0.067733 0.541867,-0.022578 0.541867,-0.022578 0,0 0.293512,0.022578 0.316089,0 0.722489,0.090311 0.428979,0.067733 0.767646,0.2935114 0.338667,0.2032002 0.4064,0.6096006 0.06773,0.4064004 -0.158045,0.6321784 Q 56.668201,3.760024 56.352112,3.872913 56.036023,3.963224 55.787667,3.985802 55.539311,4.00838 55.539311,4.00838 l -3.612448,0.2032002 q 0,0 0.06773,0.2935114 0.06773,0.2935114 0.135466,0.677334 0.09031,0.3612448 0.112889,0.6321784 0.02258,0.2483558 0.04516,0.6547562 0.02258,0.3838227 0.04516,0.6999119 0.02258,0.2935114 0.02258,0.2935114 h 1.670758 q 0,0 0.248356,0.022578 0.248355,0 0.564445,0.090311 0.338667,0.067733 0.587022,0.225778 0.248356,0.1580446 0.270934,0.4741338 0.02258,0.4064004 -0.316089,0.6096006 -0.316089,0.2032002 -0.677334,0.2709336 -0.338667,0.045156 -0.428978,0.067733 -0.06773,0 -0.361245,0.022578 -0.293512,0 -0.654756,0 -0.338668,0 -0.609601,0 -0.270934,0 -0.270934,0 0,0 0,0.338667 0.02258,0.3160893 0.04516,0.7450675 0.02258,0.428978 0,0.745067 0,0.293511 -0.02258,0.72249 -0.02258,0.4064 -0.04516,0.722489 -0.02258,0.293512 -0.02258,0.293512 l 3.048003,-0.112889 q 0,0 0.293511,0 0.293512,-0.02258 0.699912,0.04516 0.4064,0.06773 0.72249,0.270934 0.316089,0.2032 0.338667,0.6096 0.04516,0.406401 -0.225778,0.654757 -0.270934,0.248356 -0.632179,0.361245 -0.361245,0.112889 -0.654756,0.158044 -0.270934,0.02258 -0.270934,0.02258 l -4.876805,0.248356 q 0,0 -0.361244,0 -0.338667,0.02258 -0.790223,-0.04516 -0.451556,-0.09031 -0.790223,-0.338667 -0.338667,-0.270933 -0.31609,-0.812801 0.04516,-0.722489 0.09031,-2.25778 0.04515,-1.557868 -0.04516,-3.6350253 -0.09031,-2.0771577 -0.474134,-4.3575155 z"
         style="fill:#d90909;stroke:#000000"
         id="path24804" />
      <path
         d="m 61.973949,15.071502 q -0.767645,0 -1.196623,-0.180623 -0.406401,-0.180622 -0.564445,-0.4064 -0.158045,-0.225778 -0.180623,-0.406401 -0.02258,-0.180622 -0.02258,-0.180622 0,0 -0.112889,-0.609601 -0.09031,-0.632178 -0.248355,-1.625601 -0.158045,-0.993423 -0.361245,-2.1448913 -0.180623,-1.1740456 -0.361245,-2.25778 -0.158045,-1.1063123 -0.293511,-1.9191131 -0.135467,-0.8353786 -0.203201,-1.12889 -0.09031,-0.451556 0.04516,-0.7224897 0.158045,-0.2935114 0.383823,-0.4289782 0.248355,-0.1580446 0.428978,-0.2032002 0.2032,-0.067733 0.2032,-0.067733 0,0 0.564445,-0.090311 0.587023,-0.112889 1.444979,-0.2709336 0.857957,-0.1580446 1.761069,-0.2935114 0.903112,-0.1580446 1.580446,-0.2483558 0.677334,-0.090311 1.061156,0.067733 0.383823,0.1354668 0.564445,0.3612448 0.180623,0.225778 0.225779,0.4289782 0.04515,0.1806224 0.04515,0.1806224 0,0 0.04516,0.3612448 0.06773,0.3612449 0.135467,0.8579565 0.06773,0.4741338 0.09031,0.903112 0.04516,0.6321784 -0.293512,1.0385788 Q 66.37662,6.4919374 65.24773,6.6048265 64.502663,6.6725599 64.186574,6.4467818 63.870484,6.2210038 63.802751,5.972648 63.757595,5.7242922 63.757595,5.7242922 L 63.622129,4.2341574 62.199727,4.3696242 62.98995,8.2530059 q 0,0 0.293512,0 0.293511,0 0.677334,0.067733 0.383822,0.045156 0.699911,0.225778 0.31609,0.1806224 0.383823,0.564445 0.06773,0.3612448 -0.2032,0.5870229 -0.248356,0.225778 -0.609601,0.3160892 -0.338667,0.09031 -0.632178,0.135467 -0.270934,0.02258 -0.270934,0.02258 0,0 0.135467,0.970845 0.135467,0.948268 0.293511,2.348092 0.09031,0.699912 -0.180622,1.038579 -0.248356,0.338667 -0.632178,0.451556 -0.361245,0.112889 -0.677334,0.09031 -0.293512,0 -0.293512,-10e-7 z"
         style="fill:#d90909;stroke:#000000"
         id="path24806" />
      <path
         d="M 75.927006,6.2887372 Q 75.046472,6.2210038 74.662649,5.9274924 74.301404,5.633981 74.233671,5.3856252 q -0.06773,-0.2709336 -0.06773,-0.2709336 0,0 -0.04515,-0.3160892 Q 74.075631,4.4825132 73.895013,4.166424 73.71439,3.8503348 73.262834,3.827757 72.924167,3.805179 72.720967,4.2341574 q -0.2032,0.4064004 -0.316089,1.1063122 -0.112889,0.6999118 -0.158045,1.5578683 -0.02258,0.8353786 -0.02258,1.693335 0.02258,1.1288901 0.112889,2.1900471 0.112889,1.038578 0.361244,1.693335 0.270934,0.654756 0.745068,0.654756 0.361245,0 0.541867,-0.316089 0.180622,-0.338667 0.225778,-0.745068 0.06773,-0.4064 0.06773,-0.722489 0,-0.31609 0,-0.31609 0,0 -0.270934,0.02258 -0.248356,0.02258 -0.51929,-0.09031 -0.270933,-0.135467 -0.270933,-0.564445 0,-0.451556 0.180622,-0.6096006 0.2032,-0.1580446 0.383823,-0.1806224 0.2032,-0.022578 0.2032,-0.022578 h 1.964269 q 0,0 0.293511,0 0.293512,0 0.677334,0.1128891 0.383823,0.090311 0.677334,0.3612449 0.293512,0.248356 0.316089,0.767645 0.04516,1.264357 -0.361244,2.099736 -0.406401,0.8128 -1.12889,1.286934 -0.699912,0.474134 -1.580446,0.677334 -0.857957,0.180623 -1.761069,0.180623 -0.903112,0 -1.715913,-0.316089 Q 70.553489,14.439323 69.921311,13.6491 69.289133,12.836299 68.882732,11.413898 68.49891,9.9914966 68.453754,7.8014499 68.408598,6.0403814 68.792421,4.9340692 69.176244,3.827757 69.785844,3.2181563 q 0.609601,-0.6096006 1.264357,-0.8579564 0.677334,-0.2709336 1.219201,-0.338667 0.541867,-0.067733 0.767645,-0.090311 0.270934,-0.022578 0.880535,0.045156 0.6096,0.067733 1.309512,0.3160892 0.699912,0.225778 1.286935,0.6999118 0.6096,0.4741338 0.903112,1.2643569 0.293511,0.790223 0.112889,1.2192012 -0.180623,0.4064004 -0.564445,0.5870228 -0.383823,0.1806224 -0.72249,0.2032002 -0.316089,0.022578 -0.316089,0.022577 z"
         style="fill:#d90909;stroke:#000000"
         id="path24808" />
      <path
         d="M 79.40398,13.829723 78.975002,3.1730007 q 0,0 0,-0.1806224 0.02258,-0.1806224 0.158044,-0.4064004 0.135467,-0.2483558 0.496712,-0.4289782 0.383823,-0.2032002 1.106312,-0.225778 0.970846,-0.045156 1.377246,0.225778 0.428978,0.2483558 0.519289,0.5418672 0.112889,0.2709336 0.112889,0.2935114 0,0.022578 0.02258,0.5192894 0.02258,0.4967117 0.04516,1.2192013 0.02258,0.7224896 0.04516,1.4449792 0.02258,0.7224897 0.04515,1.2192013 0.02258,0.4741338 0.02258,0.4741338 l 2.393247,-0.1354668 -0.361245,-4.538138 q 0,0 -0.02258,-0.1580446 0,-0.1806224 0.09031,-0.4064004 0.112889,-0.2483558 0.451556,-0.451556 0.361245,-0.225778 1.061157,-0.2935114 0.72249,-0.067733 1.106312,0.090311 0.383823,0.1354668 0.564445,0.3612448 0.180623,0.225778 0.2032,0.4064004 0.04516,0.1806224 0.04516,0.1806224 L 89.15759,13.468478 q 0,0 0.02258,0.248356 0.02258,0.225778 -0.06773,0.564445 -0.09031,0.316089 -0.451556,0.564445 -0.338667,0.225778 -1.061156,0.225778 -0.72249,0 -1.12889,-0.2032 -0.406401,-0.203201 -0.587023,-0.451556 -0.180623,-0.270934 -0.225778,-0.474134 -0.04516,-0.203201 -0.04516,-0.203201 L 85.454831,9.4044737 82.99385,9.5399405 83.197051,13.965189 q 0,0 -0.02258,0.180623 -0.02258,0.158045 -0.180623,0.383823 -0.158044,0.2032 -0.541867,0.383822 -0.383823,0.158045 -1.12889,0.158045 -0.745067,0 -1.151468,-0.180623 -0.383822,-0.2032 -0.541867,-0.428978 -0.158045,-0.248356 -0.2032,-0.428978 -0.02258,-0.2032 -0.02258,-0.2032 z"
         style="fill:#d90909;stroke:#000000"
         id="path24810" />
      <path
         d="m 100.67221,2.1118441 q 0,0 0.47413,0.022578 0.47414,0.022578 1.17405,0.2483558 0.69991,0.2032002 1.4224,0.790223 0.72249,0.5644451 1.2192,1.6481795 0.51929,1.0837344 0.58702,2.8673807 0.0903,2.8222249 -0.38382,4.4478269 -0.47413,1.603023 -1.51271,2.280358 -1.03858,0.654756 -2.6416,0.654756 -2.39325,0 -3.72534,-1.64818 -1.332091,-1.670757 -1.332091,-5.2832049 0,-1.8062241 0.383823,-2.9802697 0.383823,-1.1740456 1.038579,-1.8288019 0.654756,-0.6547562 1.490135,-0.9256898 0.857956,-0.2935114 1.806224,-0.2935116 z m 0.15804,1.8062241 q -0.15804,0.045156 -0.36124,0.112889 -0.18062,0.067733 -0.36125,0.4289782 -0.15804,0.3612448 -0.293507,1.2192012 -0.112889,0.8579564 -0.158044,2.4609803 -0.04516,1.8288019 0.06773,2.8899581 0.112889,1.038579 0.338671,1.490135 0.24836,0.428978 0.58702,0.451556 0.27094,0.02258 0.49671,-0.135467 0.24836,-0.158044 0.42898,-0.654756 0.2032,-0.496711 0.29351,-1.467557 0.11289,-0.9708452 0.11289,-2.5738691 0,-1.6030239 -0.18062,-2.4609803 -0.15804,-0.8805342 -0.4064,-1.241779 -0.22578,-0.3838226 -0.4064,-0.451556 -0.15805,-0.067733 -0.15805,-0.067733 z"
         style="fill:#d90909;stroke:#000000"
         id="path24812" />
      <path
         d="m 110.0194,1.8860661 q 0.47413,0 0.90311,0.045156 0.45155,0.022578 0.74507,0.2709336 0.29351,0.2483558 0.33866,0.903112 0.0226,0.3160892 0.0903,1.0611567 0.0903,0.7224896 0.18063,1.693335 0.11289,0.9708455 0.22577,2.0094243 0.13547,1.016001 0.24836,1.9642687 0.11289,0.9256896 0.2032,1.6030236 0.0903,0.677334 0.13547,0.903112 0.0677,0.338667 0.13546,0.812801 0.0677,0.451556 0,0.903112 -0.0677,0.428978 -0.42897,0.722489 -0.33867,0.293512 -1.12889,0.293512 -0.76765,0 -1.19663,-0.158045 -0.42898,-0.180622 -0.6096,-0.428978 -0.18062,-0.248356 -0.22578,-0.451556 -0.0226,-0.225778 -0.0452,-0.316089 -0.0226,-0.06773 -0.11289,-0.632179 -0.0903,-0.564445 -0.22578,-1.354668 -0.11289,-0.790223 -0.24835,-1.557868 -0.11289,-0.7902227 -0.20321,-1.3095121 -0.0903,-0.5192894 -0.0903,-0.5192894 0,0 -0.29351,0.022578 -0.27093,0 -0.67733,-0.022578 -0.38382,-0.045156 -0.74507,-0.1806224 -0.33867,-0.1580446 -0.49671,-0.4741338 -0.13547,-0.338667 0.0677,-0.903112 0.27094,-0.7224897 0.56445,-1.5578683 0.29351,-0.8353786 0.67733,-1.6030238 0.4064,-0.7676453 0.92569,-1.2417791 0.54187,-0.4967116 1.28694,-0.4967116 z"
         style="fill:#d90909;stroke:#000000"
         id="path24814" />
      <path
         d="m 116.16055,6.6951377 q -0.0677,0 -0.36124,0 -0.29351,0 -0.65476,-0.1354669 -0.36124,-0.1354668 -0.6096,-0.4967116 -0.24835,-0.3838226 -0.22578,-1.12889 0.0452,-1.4901349 1.17405,-2.3029357 1.12889,-0.8128008 2.93511,-0.790223 0.90312,0 1.78365,0.1806224 0.90311,0.1580446 1.6256,0.5418672 0.72249,0.3838226 1.15147,1.0611567 0.45156,0.6547562 0.45156,1.693335 0,0.8353786 -0.42898,1.8062241 -0.42898,0.9482676 -1.06116,1.8965352 -0.63218,0.9482677 -1.28693,1.7384909 -0.63218,0.767645 -1.08374,1.241779 -0.42898,0.474134 -0.45155,0.474134 0.0226,0 0.4064,-0.04516 0.38382,-0.06773 0.88053,-0.135467 0.49671,-0.06773 0.88053,-0.112889 0.38383,-0.06773 0.38383,-0.06773 0,0 0.24835,0 0.27094,0 0.6096,0.06773 0.36125,0.04516 0.65476,0.225778 0.29351,0.180623 0.33867,0.564445 0.11289,0.767645 -0.22578,1.016001 -0.31609,0.225778 -0.83538,0.31609 -0.2032,0.02258 -0.88053,0.112889 -0.65476,0.09031 -1.53529,0.2032 -0.85796,0.112889 -1.69334,0.225778 -0.8128,0.09031 -1.35467,0.158044 -0.54186,0.06773 -0.54186,0.06773 0,0 -0.36125,0 -0.33867,-0.02258 -0.74507,-0.135467 -0.38382,-0.112889 -0.51929,-0.4064 -0.2032,-0.451557 -0.15804,-0.72249 0.0677,-0.293512 0.63218,-0.92569 0.22578,-0.248356 0.72249,-0.835379 0.49671,-0.6096 1.08373,-1.399823 0.6096,-0.812801 1.17405,-1.6933353 0.56444,-0.903112 0.92569,-1.7384906 0.36124,-0.8579565 0.38382,-1.5352905 0.0226,-1.12889 -0.13547,-1.5578682 -0.15804,-0.4289782 -0.36124,-0.4741338 -0.18062,-0.067733 -0.24836,-0.067733 -0.0677,0 -0.31609,0.090311 -0.24835,0.067733 -0.49671,0.2935114 -0.22578,0.2032002 -0.22578,0.6547562 0,0.4289782 0,0.8805342 0,0.4289782 -0.33866,0.7450674 -0.31609,0.3160892 -1.30952,0.4515561 z"
         style="fill:#d90909;stroke:#000000"
         id="path24816" />
      <path
         d="m 124.55947,3.7826014 q -0.0226,-0.1354668 0.0226,-0.4064005 0.0452,-0.2709336 0.31609,-0.564445 0.29351,-0.3160892 0.97085,-0.564445 0.69991,-0.2483558 1.96427,-0.338667 1.71591,-0.112889 2.73191,0.2935114 1.016,0.4064004 1.46756,1.0837344 0.47413,0.6547563 0.56444,1.3320903 0.13547,0.9934232 -0.0452,1.6481794 -0.15805,0.6547563 -0.45156,0.7902231 0,0 0.22578,0.090311 0.24835,0.090311 0.56444,0.4064004 0.33867,0.2935114 0.58703,0.9482676 0.27093,0.6547562 0.33866,1.8062245 0.0903,1.512712 -0.22577,2.596447 -0.31609,1.061156 -1.26436,1.625602 -0.92569,0.541867 -2.75449,0.541867 -1.82881,0 -2.88996,-0.406401 -1.06116,-0.428978 -1.53529,-1.061156 -0.45156,-0.632179 -0.45156,-1.241779 0,-0.609601 0.33867,-0.92569 0.36124,-0.316089 0.72249,-0.428978 0.36124,-0.112889 0.4064,-0.112889 0.0452,0 0.33867,0 0.31608,-0.02258 0.69991,0.04515 0.4064,0.06773 0.72249,0.293512 0.31609,0.225778 0.38382,0.699911 0.0903,0.632179 0.33867,0.903112 0.24835,0.270934 0.47413,0.338667 0.24836,0.06773 0.24836,0.06773 0,0 0.13546,0 0.15805,-0.02258 0.31609,-0.180623 0.18062,-0.180622 0.29351,-0.654756 0.11289,-0.496711 0.0452,-1.444979 -0.0903,-1.264357 -0.38382,-1.8062243 -0.29351,-0.5418672 -0.6096,-0.6547562 -0.29352,-0.1354668 -0.42898,-0.1354668 -0.0903,0 -0.38382,0 -0.27094,0 -0.58703,-0.067733 -0.31609,-0.067733 -0.54186,-0.225778 -0.22578,-0.1580446 -0.2032,-0.451556 0.0226,-0.4064004 0.24835,-0.6096006 0.22578,-0.2032002 0.47413,-0.2709336 0.24836,-0.067733 0.29352,-0.067733 0.0677,-0.022578 0.31609,-0.090311 0.24835,-0.067733 0.45155,-0.3612448 0.22578,-0.3160892 0.13547,-0.9934232 -0.0677,-0.6999118 -0.4064,-0.903112 -0.33867,-0.225778 -0.65476,-0.2032002 -0.29351,0 -0.33867,0 -0.0226,0 -0.45155,0.112889 -0.42898,0.090311 -0.99342,0.1354668 -0.54187,0.045156 -0.99343,-0.067733 -0.45155,-0.112889 -0.54187,-0.5192894 z"
         style="fill:#d90909;stroke:#000000"
         id="path24818" />
      <path
         d="m 135.26131,3.3310453 q 0,0 0.0226,-0.2032002 0.0451,-0.2032002 0.18062,-0.451556 0.15805,-0.2709336 0.51929,-0.451556 0.36125,-0.2032002 1.016,-0.1806224 0.88054,0.022578 1.19663,0.2935114 0.33866,0.2709336 0.36124,0.564445 0.0226,0.2709336 0.0226,0.3838226 0,0.067733 -0.0677,0.6773341 -0.0451,0.5870228 -0.13546,1.4449792 -0.0903,0.8353786 -0.2032,1.6707573 -0.0903,0.8353786 -0.15805,1.3998236 -0.0452,0.564445 -0.0452,0.564445 l 2.12231,-0.1580446 -0.2032,-3.8608039 q 0,0 0,-0.1580446 0.0226,-0.1580446 0.15804,-0.3612448 0.15805,-0.225778 0.51929,-0.4064004 0.36125,-0.1806224 1.06116,-0.225778 0.69991,-0.045156 1.10631,0.112889 0.4064,0.1580446 0.6096,0.3838226 0.2032,0.2032002 0.24836,0.3838226 0.0677,0.1806224 0.0677,0.1806224 l 0.47414,8.8504978 q 0,0 -0.0226,0.2032 0,0.180623 -0.15805,0.451556 -0.13546,0.248356 -0.51929,0.451556 -0.38382,0.180623 -1.12889,0.180623 -0.74506,0 -1.15146,-0.180623 -0.4064,-0.180622 -0.58703,-0.428978 -0.15804,-0.248356 -0.2032,-0.428978 -0.0226,-0.180623 -0.0226,-0.180623 l -0.15805,-3.025425 -2.88996,0.338667 q 0,0 -0.36124,0.04516 -0.36125,0.02258 -0.83538,-0.04516 -0.45156,-0.06773 -0.8128,-0.361245 -0.33867,-0.293511 -0.31609,-0.9256894 0.0452,-1.2643569 0.11289,-2.9351141 0.0903,-1.6933351 0.18062,-3.6124482 z"
         style="fill:#d90909;stroke:#000000"
         id="path24820" />
      <path
         d="m 145.69223,3.3310453 q 0,0 0.0452,-0.2709336 0.0677,-0.2709336 0.36124,-0.5418672 0.31609,-0.2935114 1.016,-0.3160892 0.42898,-0.022578 1.08374,-0.022578 0.65476,-0.022578 1.37725,-0.045156 0.74506,-0.022578 1.37724,-0.045156 0.63218,-0.022578 1.03858,-0.022578 0.4064,-0.022578 0.4064,-0.022578 0,0 0.27093,0 0.29352,0 0.67734,0.090311 0.38382,0.067733 0.67733,0.2709336 0.29351,0.2032002 0.31609,0.6096006 0.0226,0.4064004 -0.22578,0.6547563 -0.24835,0.225778 -0.58702,0.3612448 -0.31609,0.112889 -0.56444,0.1580446 -0.24836,0.022578 -0.24836,0.022578 l -3.79307,0.090311 -0.15805,1.8965352 q 0,0 0.36125,-0.045156 0.38382,-0.067733 0.97084,-0.067733 0.60961,0 1.24178,0.1354668 0.65476,0.112889 1.2192,0.4515561 1.06116,0.6547562 1.44498,1.5352904 0.38383,0.8579564 0.4064,2.2803573 0,0.699912 -0.18062,1.512713 -0.18062,0.790223 -0.69991,1.490135 -0.49671,0.699912 -1.44498,1.151468 -0.92569,0.428978 -2.46098,0.428978 -1.51271,0 -2.50614,-0.383823 -0.97084,-0.383822 -1.39982,-0.903112 -0.4064,-0.541867 -0.29351,-0.993423 0.13547,-0.474134 0.79022,-0.654756 0.88054,-0.248356 1.39983,-0.112889 0.51929,0.112889 0.74506,0.316089 0.22578,0.180622 0.22578,0.180622 0,0 0.2032,0.2032 0.22578,0.203201 0.85796,0.225778 0.63218,0.02258 0.88053,-0.699911 0.27094,-0.745068 0.15805,-1.919113 -0.0903,-1.1740457 -0.36125,-1.7384907 -0.27093,-0.564445 -0.79022,-0.6321784 -0.33867,-0.045156 -0.58702,0.1354668 -0.22578,0.1580446 -0.36125,0.3612448 -0.13546,0.1806224 -0.15804,0.2032002 -0.0226,0 -0.22578,0.1580446 -0.18062,0.1580446 -0.58702,0.2709336 -0.4064,0.090311 -1.06116,-0.067733 -0.97085,-0.2483558 -1.2192,-0.5870228 -0.22578,-0.3612448 -0.13547,-1.0611566 0.0903,-0.7224896 0.2032,-1.7836463 0.13547,-1.0837344 0.29351,-2.2577801 z"
         style="fill:#d90909;stroke:#000000"
         id="path24822" />
      <path
         d="m 158.20034,2.9698005 q 0.15804,-0.112889 0.42898,-0.3612448 0.27093,-0.2483558 0.65475,-0.451556 0.38383,-0.225778 0.90312,-0.2709336 0.51929,-0.045156 1.17404,0.2483558 0.76765,0.338667 0.97085,0.6321784 0.2032,0.2709336 0.0452,0.5192894 -0.13546,0.225778 -0.42898,0.4289783 -0.27093,0.2032002 -0.49671,0.4064004 -0.42898,0.3838226 -0.74506,0.8579564 -0.29352,0.451556 -0.45156,0.790223 -0.15805,0.3160892 -0.15805,0.3160892 1.37725,-0.338667 2.43841,0.045156 1.06115,0.3612448 1.67075,1.3320903 0.63218,0.9482676 0.65476,2.3480913 0.0226,1.3998234 -0.47413,2.5964464 -0.47414,1.196624 -1.53529,1.941691 -1.03858,0.72249 -2.66418,0.72249 -1.64818,0 -2.70934,-0.745068 -1.06116,-0.767645 -1.58045,-2.077157 -0.51929,-1.309513 -0.51929,-2.9576919 0,-0.9934232 0.27094,-1.919113 0.29351,-0.9482677 0.69991,-1.7384907 0.42898,-0.790223 0.85796,-1.3772458 0.42897,-0.6096006 0.69991,-0.9482677 0.29351,-0.338667 0.29351,-0.338667 z m 1.85138,4.6058714 q -0.69991,0.067733 -0.99342,0.5418672 -0.29352,0.451556 -0.33867,1.016001 -0.0226,0.5418673 0,0.9031119 0.0677,0.993423 0.45155,1.761069 0.38383,0.767645 1.17405,0.699911 0.79022,-0.06773 1.08373,-0.857956 0.29352,-0.790223 0.2032,-2.3480913 -0.0452,-0.7676452 -0.29351,-1.12889 -0.24835,-0.3838226 -0.54186,-0.4967116 -0.29352,-0.112889 -0.51929,-0.090311 -0.22578,0 -0.22578,-2e-7 z"
         style="fill:#d90909;stroke:#000000"
         id="path24824" />
      <path
         d="m 167.43465,13.784567 q -0.0677,-1.512713 0.2032,-2.935114 0.29352,-1.4449793 0.74507,-2.6641805 0.45156,-1.241779 0.92569,-2.1674689 0.47414,-0.9256898 0.79022,-1.4449792 0.33867,-0.5192894 0.33867,-0.5192894 0,0 -0.4064,0.045156 -0.38382,0.022578 -0.92569,0.090311 -0.51929,0.045156 -0.99342,0.090311 -0.47414,0.045156 -0.63218,0.045156 -0.2032,0 -0.63218,0.022578 -0.42898,0.022578 -0.79022,-0.1354668 -0.33867,-0.1806224 -0.36125,-0.6999119 -0.0226,-0.3838226 0.24836,-0.6096006 0.29351,-0.2483558 0.65476,-0.3612448 0.36124,-0.112889 0.63217,-0.1354668 0.29352,-0.045156 0.29352,-0.045156 l 5.12516,-0.2709336 q 0,0 0.29351,0.022578 0.29351,0 0.67733,0.112889 0.4064,0.090311 0.67734,0.3612448 0.29351,0.2483558 0.27093,0.7224896 0,0.4741339 -0.51929,1.2417791 -0.83538,1.241779 -1.37725,2.5287137 -0.51929,1.2869346 -0.83537,2.483558 -0.29352,1.1740453 -0.45156,2.1223133 -0.13547,0.925689 -0.18062,1.490134 -0.0452,0.541868 -0.0452,0.541868 0,0 0.0226,0.2032 0.0226,0.2032 -0.11289,0.474134 -0.11289,0.270933 -0.49671,0.474134 -0.38382,0.2032 -1.19662,0.2032 -0.81281,0 -1.21921,-0.180623 -0.4064,-0.2032 -0.56444,-0.451556 -0.15805,-0.270933 -0.15805,-0.451556 0,-0.2032 0,-0.2032 z"
         style="fill:#d90909;stroke:#000000"
         id="path24826" />
      <path
         d="m 177.18824,7.8466055 q 0,0 -0.29352,-0.2483558 -0.29351,-0.2483558 -0.58702,-0.8353786 -0.29351,-0.5870229 -0.29351,-1.5578683 0.0226,-0.9934232 0.6096,-1.7159129 0.6096,-0.7450674 1.60302,-1.1514678 0.99343,-0.4289782 2.16747,-0.4289782 1.19663,-0.022578 2.16747,0.3838226 0.99343,0.4064004 1.58045,1.12889 0.6096,0.7224897 0.6096,1.6933351 0,0.9482676 -0.29351,1.5578683 -0.27094,0.6096006 -0.56445,0.903112 -0.27093,0.2935114 -0.27093,0.2935114 0,0 0.22578,0.1806224 0.22578,0.1806224 0.49671,0.5418672 0.29351,0.3612448 0.49671,0.9256898 0.2032,0.5418673 0.18062,1.3095123 -0.0226,1.016001 -0.45155,1.986847 -0.42898,0.970845 -1.4224,1.625601 -0.97085,0.632179 -2.70934,0.632179 -1.73849,0 -2.79965,-0.654756 -1.06115,-0.654757 -1.53529,-1.603024 -0.45155,-0.948268 -0.38382,-1.828802 0.11289,-1.3320904 0.47413,-2.0094245 0.38383,-0.6999118 0.99343,-1.12889 z m 3.20604,-4.6284492 q -0.38382,0.022578 -0.72249,0.3160892 -0.31609,0.2935115 -0.45155,1.3546681 -0.0903,0.6999118 0.11289,1.1063122 0.2032,0.3838226 0.51929,0.564445 0.33866,0.1580447 0.63218,0.1580447 0.45155,0 0.74506,-0.4515561 0.29351,-0.4741338 0.24836,-1.5352904 -0.0226,-0.8128008 -0.29351,-1.1063122 -0.27094,-0.3160893 -0.54187,-0.3612449 -0.24836,-0.045156 -0.24836,-0.045156 z m -0.0226,5.8250726 q -0.24836,0 -0.56445,0.112889 -0.29351,0.112889 -0.56444,0.5644451 -0.24836,0.428978 -0.36125,1.422401 -0.0903,0.993424 0.2032,1.490135 0.29351,0.474134 0.69991,0.632179 0.42898,0.135466 0.69992,0.158044 0.27093,0 0.58702,-0.180622 0.33866,-0.180623 0.58702,-0.699912 0.24836,-0.519289 0.22578,-1.53529 0,-0.767646 -0.24836,-1.174046 -0.22578,-0.4064005 -0.51929,-0.5644451 -0.29351,-0.1806224 -0.51929,-0.2032002 -0.22577,-0.022578 -0.22577,-0.022578 z"
         style="fill:#d90909;stroke:#000000"
         id="path24828" />
      <path
         d="m 194.05382,15.071502 q -0.85796,0 -1.28693,-0.2032 -0.42898,-0.203201 -0.56445,-0.451556 -0.13547,-0.248356 -0.13547,-0.451557 0,-0.2032 0,-0.2032 l -0.0226,-4.4026709 q -1.19663,0.022578 -2.28036,-0.067733 -1.06116,-0.112889 -1.89654,-0.451556 -0.8128,-0.3612448 -1.30951,-1.0837344 -0.49671,-0.7224896 -0.56444,-1.9642687 -0.0677,-1.241779 0.45155,-1.9868464 0.51929,-0.7676453 1.33209,-1.1514679 0.83538,-0.4064004 1.69334,-0.564445 0.85795,-0.1580446 1.49013,-0.1806224 0.83538,-0.045156 1.71592,0.1806224 0.90311,0.2032002 1.6256,0.8128008 0.74506,0.6096006 1.10631,1.7610685 0.22578,0.677334 0.33867,1.6707572 0.11289,0.9934233 0.13546,2.1223133 0.0226,1.1063122 0.0226,2.1900465 0,1.061156 -0.0226,1.896535 -0.0226,0.835379 -0.0226,1.264357 0,0.541867 -0.27094,0.812801 -0.27093,0.248356 -0.63218,0.361245 -0.36124,0.09031 -0.63218,0.09031 -0.27093,0 -0.27093,0 z m -1.87396,-7.9473861 q 0,0 0,-0.2935114 0.0226,-0.3160893 -0.0226,-0.7450675 -0.0452,-0.451556 -0.18063,-0.903112 -0.11289,-0.451556 -0.38382,-0.7450674 -0.27093,-0.3160892 -0.74507,-0.338667 -0.58702,-0.022578 -0.88053,0.2483558 -0.29351,0.2709336 -0.4064,0.6321784 -0.11289,0.3612448 -0.13547,0.6547562 0,0.2709336 0,0.2483558 0,-0.022578 0.0226,0.2709336 0.0226,0.2709336 0.24836,0.6096007 0.22577,0.3160892 0.79022,0.4741338 0.58702,0.1580446 1.69333,-0.112889 z"
         style="fill:#d90909;stroke:#000000"
         id="path24830" />
      <path
         d="m 8.4194965,33.969123 q 1.1288901,-0.02258 1.9191135,0.2032 0.790223,0.2032 1.309512,0.496712 0.519289,0.293511 0.812801,0.519289 0.293511,0.225778 0.428978,0.225778 0.248356,0.02258 0.361245,0.248356 0.112889,0.2032 0.112889,0.2032 0,0 0.06773,0.451556 0.06773,0.451556 0.158045,1.151468 0.112889,0.699912 0.2032,1.467557 0.09031,0.767645 0.158045,1.444979 0.06773,0.677334 0.06773,1.061157 0,0.632178 -0.09031,1.016001 -0.06773,0.383823 -0.451556,0.587023 -0.383823,0.180622 -1.264357,0.248356 -0.654756,0.04516 -0.948268,-0.02258 -0.293511,-0.06773 -0.361244,-0.158045 -0.06773,-0.09031 -0.06773,-0.09031 -0.2032,0.158045 -0.677334,0.225778 -0.4515558,0.04516 -0.8579562,0.04516 -0.4064004,0 -0.4064004,0 0,0 -0.5192895,-0.06773 Q 7.8550515,43.13571 7.0874063,42.887354 6.3423389,42.616421 5.5746936,42.097131 4.8296262,41.555264 4.3329146,40.67473 3.836203,39.771618 3.8587808,38.439527 q 0.022578,-1.33209 0.4967116,-2.167468 0.4741338,-0.857957 1.1514678,-1.332091 0.6773341,-0.474134 1.3320903,-0.677334 0.677334,-0.2032 1.12889,-0.248356 0.451556,-0.04515 0.451556,-0.04515 z m 1.6933355,2.325513 Q 9.9999426,36.136592 9.61612,35.955969 9.2548752,35.752769 8.9162082,35.617302 8.6001189,35.481836 8.6001189,35.526991 q 0,0.02258 -0.2483558,0.383823 -0.225778,0.338667 -0.4741338,1.016001 -0.225778,0.654756 -0.2483558,1.580446 -0.022578,0.92569 0.2483558,1.603024 0.2709336,0.677334 0.6547562,1.038579 0.4064005,0.361244 0.7450675,0.361244 0.2483558,0 0.4741338,-0.225778 0.225778,-0.248355 0.3838222,-0.541867 0.158045,-0.316089 0.248356,-0.541867 0.09031,-0.225778 0.09031,-0.225778 z"
         style="stroke:#000000"
         id="path24832" />
      <path
         d="m 15.418591,30.288941 q 0,0 0.04516,-0.2032 0.06773,-0.2032 0.270934,-0.451556 0.2032,-0.248356 0.632178,-0.428978 0.428978,-0.2032 1.174046,-0.180622 0.699912,0.02258 1.038579,0.316089 0.338667,0.293511 0.4064,0.745067 0.06773,0.428978 -0.04516,0.880534 -0.158045,0.609601 -0.203201,1.377246 -0.04516,0.767645 -0.04516,1.33209 0.02258,0.541868 0.02258,0.541868 1.806224,0 2.912536,0.451556 1.12889,0.451556 1.738491,1.12889 0.6096,0.677334 0.835378,1.354668 0.248356,0.677334 0.293512,1.12889 0.04516,0.451556 0.04516,0.451556 0,0 -0.06773,0.474134 -0.04516,0.451556 -0.248356,1.12889 -0.2032,0.677334 -0.654756,1.354668 -0.451556,0.677334 -1.241779,1.151468 -0.790223,0.451556 -2.032002,0.451556 -1.557869,0 -2.57387,-0.699912 -0.993423,-0.699912 -1.557868,-1.85138 -0.564445,-1.174046 -0.812801,-2.551291 -0.248356,-1.399824 -0.293511,-2.77707 -0.02258,-1.399824 0.06773,-2.551291 0.09031,-1.174046 0.180623,-1.873958 0.112889,-0.699912 0.112889,-0.699912 z m 3.115736,5.712184 q 0,0 -0.02258,0.519289 -0.02258,0.496712 0,1.241779 0.04516,0.745068 0.225778,1.490135 0.180623,0.745068 0.587023,1.264357 0.428978,0.496712 1.151468,0.474134 0.519289,0 0.767645,-0.406401 0.248356,-0.428978 0.316089,-0.970845 0.09031,-0.541867 0.06773,-0.970845 -0.02258,-0.428979 -0.02258,-0.496712 0,-0.06773 -0.09031,-0.4064 -0.06773,-0.361245 -0.361245,-0.790223 -0.270934,-0.451556 -0.903112,-0.72249 -0.609601,-0.293511 -1.715913,-0.225778 z"
         style="stroke:#000000"
         id="path24834" />
      <path
         d="m 33.142155,38.146016 q -0.880534,0 -1.286935,-0.2032 -0.383822,-0.225778 -0.496711,-0.451556 -0.09031,-0.225778 -0.09031,-0.293512 0,-0.06773 -0.09031,-0.270933 -0.06773,-0.2032 -0.248355,-0.383823 -0.180623,-0.2032 -0.474134,-0.2032 -0.293512,-0.02258 -0.564445,0.4064 -0.270934,0.428979 -0.451556,1.038579 -0.180623,0.587023 -0.225778,1.12889 -0.02258,0.541867 0.112889,1.106312 0.158044,0.564445 0.451556,0.948268 0.293511,0.361245 0.699912,0.383823 0.6096,0.02258 0.745067,-0.180623 0.135467,-0.225778 0.135467,-0.225778 0,0 0.04515,-0.135467 0.04516,-0.158044 0.248356,-0.338667 0.225778,-0.180622 0.699912,-0.293511 0.474134,-0.135467 1.354668,-0.112889 0.880534,0.02258 1.196623,0.225778 0.31609,0.2032 0.31609,0.451556 0.02258,0.248356 -0.09031,0.428978 -0.11289,0.180623 -0.11289,0.180623 0,0 -0.316089,0.293511 -0.316089,0.293512 -0.92569,0.677334 -0.587022,0.383823 -1.444979,0.677334 -0.857956,0.293512 -1.964268,0.293512 -2.190047,0 -3.476982,-1.196624 -1.264357,-1.196623 -1.354668,-3.38667 -0.04515,-1.083734 0.383823,-1.941691 0.428978,-0.857956 1.151468,-1.444979 0.722489,-0.609601 1.603023,-0.92569 0.880535,-0.338667 1.715913,-0.383823 0.857957,-0.04515 1.625602,0.248356 0.767645,0.270934 1.377246,0.745068 0.632178,0.474134 1.016001,0.993423 0.383822,0.519289 0.428978,0.970845 0.04516,0.428979 -0.2032,0.677334 -0.225778,0.248356 -0.587023,0.361245 -0.338667,0.09031 -0.609601,0.112889 -0.270933,0.02258 -0.293511,0.02258 z"
         style="stroke:#000000"
         id="path24836" />
      <path
         d="m 43.75371,28.573028 q 0,0 0.270934,0.04516 0.293512,0.02258 0.654756,0.135467 0.361245,0.09031 0.654757,0.316089 0.316089,0.2032 0.338667,0.587023 0.02258,0.248356 0.06773,1.083734 0.04516,0.812801 0.09031,1.941691 0.06773,1.12889 0.112889,2.348092 0.06773,1.196623 0.112889,2.25778 0.04516,1.038578 0.06773,1.693335 0.04516,0.654756 0.04516,0.654756 0,0 -0.02258,0.270933 0,0.270934 -0.135466,0.677334 -0.112889,0.406401 -0.428979,0.790224 -0.677334,0.835378 -1.715912,1.377245 -1.038579,0.541868 -2.844803,0.541868 -1.196624,0 -2.302936,-0.451556 -1.083735,-0.451556 -1.783646,-1.422402 -0.677334,-0.993423 -0.654757,-2.573869 0.02258,-1.196624 0.51929,-2.099736 0.519289,-0.903112 1.354668,-1.490134 0.835379,-0.609601 1.85138,-0.903113 1.038578,-0.293511 2.077157,-0.293511 l -0.158044,-3.905959 q 0,0 -0.04516,-0.203201 -0.04516,-0.225778 0.04516,-0.519289 0.112889,-0.293511 0.519289,-0.541867 0.4064,-0.248356 1.309512,-0.31609 z m -1.603023,7.450675 q -0.51929,-0.04516 -0.993424,0.383822 -0.474133,0.428979 -0.790223,1.106313 -0.293511,0.654756 -0.293511,1.309512 0,0.970845 0.316089,1.670757 0.338667,0.699912 0.880534,0.699912 0.361245,0 0.609601,-0.293511 0.248356,-0.293512 0.383823,-0.587023 0.135466,-0.316089 0.135466,-0.316089 z"
         style="stroke:#000000"
         id="path24838" />
      <path
         d="m 56.103739,36.475259 q -0.06773,1.12889 -0.632179,1.828802 -0.564445,0.677334 -1.377245,1.038578 -0.790224,0.338667 -1.580447,0.474134 -0.790223,0.112889 -1.33209,0.112889 -0.519289,0 -0.519289,0 0.135467,0.790223 0.383822,1.12889 0.248356,0.338667 0.541868,0.383823 0.316089,0.04516 0.587022,-0.04516 0.270934,-0.112889 0.428979,-0.248355 0.180622,-0.135467 0.180622,-0.135467 0,0 0.248356,-0.203201 0.248356,-0.2032 0.767645,-0.383822 0.541867,-0.2032 1.354668,-0.2032 0.92569,0 1.241779,0.248355 0.338667,0.225778 0.316089,0.541868 0,0.293511 -0.135466,0.541867 -0.112889,0.225778 -0.112889,0.225778 0,0 -0.203201,0.225778 -0.180622,0.2032 -0.677334,0.496712 -0.496711,0.293511 -1.377245,0.541867 -0.880535,0.225778 -2.257781,0.248356 -1.33209,0.02258 -2.235202,-0.361245 -0.903112,-0.383823 -1.490135,-0.993423 -0.587022,-0.632179 -0.903112,-1.309513 -0.293511,-0.699912 -0.428978,-1.286935 -0.112889,-0.6096 -0.112889,-0.948267 0,-0.338667 0.04516,-0.880534 0.06773,-0.541868 0.293511,-1.12889 0.248356,-0.609601 0.745068,-1.151468 0.496711,-0.541868 1.354668,-0.880535 0.880534,-0.338667 2.235202,-0.361244 1.693335,-0.02258 2.641603,0.293511 0.948267,0.316089 1.377245,0.767645 0.428979,0.451556 0.51929,0.857957 0.112889,0.4064 0.112889,0.564445 z M 50.3464,38.371794 q 1.377245,-0.112889 2.054579,-0.587023 0.677334,-0.474134 0.790223,-1.061156 0.112889,-0.587023 -0.225778,-0.993424 -0.316089,-0.428978 -0.970845,-0.383822 -0.654756,0.02258 -0.993423,0.496711 -0.338667,0.451556 -0.474134,1.061157 -0.135467,0.587023 -0.158045,1.038579 -0.02258,0.428978 -0.02258,0.428978 z"
         style="stroke:#000000"
         id="path24840" />
      <path
         d="m 61.386923,43.293755 q 0,0 -0.248355,0 -0.248356,0 -0.632179,-0.112889 -0.361245,-0.135467 -0.722489,-0.451556 -0.361245,-0.338667 -0.564445,-0.970846 -0.203201,-0.6096 -0.496712,-1.557868 -0.293511,-0.970846 -0.519289,-2.099736 -0.225778,-1.151467 -0.270934,-2.348091 -0.02258,-1.219201 0.270934,-2.348091 0.293511,-1.12889 1.061156,-2.009424 0.677334,-0.790223 1.490135,-1.083735 0.835379,-0.293511 1.580446,-0.293511 0.745067,0 1.219201,0.09031 0.496712,0.09031 0.496712,0.09031 0,0 0.225778,0.112889 0.225778,0.09031 0.451556,0.270934 0.225778,0.180622 0.248356,0.4064 0.02258,0.2032 -0.383823,0.428978 -0.541867,0.293512 -1.083734,0.451556 -0.541868,0.135467 -0.970846,0.361245 -0.428978,0.2032 -0.654756,0.745068 -0.270934,0.654756 -0.383823,1.196623 -0.112889,0.541867 -0.112889,1.196624 0,0.654756 0.09031,1.648179 0,0 0.383822,-0.09031 0.406401,-0.112889 0.92569,-0.158045 0.541867,-0.04516 0.993423,0.09031 0.474134,0.135467 0.609601,0.587023 0.135467,0.428978 -0.225778,0.699912 -0.361245,0.270934 -0.903112,0.428978 -0.541867,0.135467 -0.970846,0.2032 -0.428978,0.04516 -0.428978,0.04516 l 1.016001,3.18347 q 0,0 0.04516,0.2032 0.04516,0.180623 -0.02258,0.451556 -0.06773,0.248356 -0.4064,0.451556 -0.338667,0.180623 -1.106313,0.180623 z"
         style="stroke:#000000"
         id="path24842" />
      <path
         d="m 72.675787,42.72931 q 0,0 -0.338667,0.135466 -0.316089,0.135467 -0.857957,0.293512 -0.541867,0.135467 -1.219201,0.135467 -0.496711,0 -1.241779,-0.135467 -0.72249,-0.158045 -1.444979,-0.587023 -0.72249,-0.428978 -1.196624,-1.241779 -0.451556,-0.812801 -0.428978,-2.167469 0.04516,-1.354668 0.609601,-2.302936 0.564445,-0.970845 1.444979,-1.603023 0.880534,-0.632179 1.85138,-0.948268 0.993423,-0.316089 1.851379,-0.361245 1.151468,-0.06773 1.941691,0.248356 0.790223,0.293511 1.196624,0.699912 0.4064,0.383822 0.4064,0.632178 0,0.180623 0.158045,0.835379 0.158044,0.654756 0.338667,1.625601 0.2032,0.948268 0.361245,2.099736 0.158044,1.12889 0.180622,2.302936 0.02258,1.174045 -0.06773,2.190046 -0.06773,1.038579 -0.406401,1.828802 -0.316089,0.812801 -1.083734,1.264357 -0.767646,0.474134 -2.122314,0.496712 -1.828801,0.02258 -3.093158,-0.428979 -1.241779,-0.428978 -1.941691,-0.993423 -0.699912,-0.541867 -0.835379,-0.857956 -0.135467,-0.31609 -0.135467,-0.632179 0.02258,-0.316089 0.338667,-0.519289 0.338667,-0.2032 1.12889,-0.2032 0.790223,0 1.174046,0.135466 0.406401,0.158045 0.587023,0.338667 0.180622,0.180623 0.316089,0.293512 0.2032,0.158044 0.609601,0.519289 0.428978,0.383823 0.92569,0.383823 0.338667,0 0.587022,-0.474134 0.248356,-0.474134 0.361245,-1.264357 0.112889,-0.790223 0.04516,-1.73849 z m -0.564445,-7.134585 q -0.767645,0.06773 -1.354668,0.677334 -0.564445,0.6096 -0.903112,1.467557 -0.338667,0.857956 -0.383823,1.693335 -0.02258,0.835378 0.316089,1.399823 0.338667,0.541868 1.106313,0.541868 0.767645,0 1.151467,-0.51929 0.406401,-0.519289 0.51929,-1.264357 0.135467,-0.767645 0.09031,-1.557868 -0.02258,-0.812801 -0.112889,-1.399824 -0.09031,-0.587022 -0.09031,-0.745067 -0.02258,-0.248356 -0.180623,-0.270934 -0.158044,-0.02258 -0.158044,-0.02258 z"
         style="stroke:#000000"
         id="path24844" />
      <path
         d="M 77.620297,41.352064 77.349364,30.19863 q 0,0 0,-0.180622 0.02258,-0.180623 0.158044,-0.428978 0.135467,-0.248356 0.474134,-0.428979 0.361245,-0.180622 1.038579,-0.180622 0.903112,0 1.33209,0.2032 0.451556,0.2032 0.587023,0.51929 0.135467,0.316089 0.112889,0.632178 -0.02258,0.225778 -0.02258,0.857956 0.02258,0.609601 0.02258,1.309513 0.02258,0.677334 0.02258,1.174045 0.02258,0.496712 0.02258,0.496712 0,0 0.451556,-0.112889 0.474133,-0.112889 1.219201,-0.158045 0.745067,-0.04516 1.580446,0.180623 0.835379,0.2032 1.580446,0.857956 0.270934,0.225778 0.428978,0.835379 0.180623,0.609601 0.270934,1.422401 0.112889,0.790223 0.158044,1.64818 0.04516,0.835378 0.04516,1.557868 0.02258,0.72249 0,1.174046 0,0.451556 0,0.451556 0,0 0,0.2032 0,0.180622 -0.112889,0.428978 -0.09031,0.248356 -0.4064,0.451556 -0.31609,0.180623 -0.970846,0.180623 -0.857956,0 -1.174045,-0.203201 -0.31609,-0.2032 -0.338667,-0.541867 -0.02258,-0.361245 -0.02258,-0.790223 0,-0.248356 -0.02258,-0.812801 -0.02258,-0.564445 -0.04516,-1.241779 -0.02258,-0.699912 -0.04516,-1.33209 -0.02258,-0.632178 -0.04516,-1.038579 -0.02258,-0.4064 -0.02258,-0.4064 0,0 -0.04515,-0.270934 -0.02258,-0.293511 -0.225778,-0.564445 -0.203201,-0.270933 -0.677334,-0.248356 -0.361245,0.02258 -0.609601,0.338667 -0.248356,0.293512 -0.4064,0.745068 -0.135467,0.428978 -0.203201,0.835378 -0.06773,0.383823 -0.06773,0.564445 0,0.180623 0,0.72249 0.02258,0.541867 0.02258,1.174046 0,0.6096 0,1.061156 0.02258,0.428979 0.02258,0.428979 0,0 -0.02258,0.248355 -0.02258,0.225778 -0.180623,0.541868 -0.158044,0.316089 -0.564445,0.564445 -0.383822,0.225778 -1.12889,0.225778 -0.857956,0 -1.286934,-0.293512 -0.406401,-0.293511 -0.541867,-0.677334 -0.11289,-0.383822 -0.11289,-0.677334 0.02258,-0.293511 0.02258,-0.293511 z"
         style="stroke:#000000"
         id="path24846" />
      <path
         d="m 102.70418,32.862811 q -0.31609,0.383822 -0.97084,0.587022 -0.63218,0.180623 -1.3321,0.112889 -0.677329,-0.06773 -1.106307,-0.451556 -0.180623,-0.158044 -0.203201,-0.4064 -0.02258,-0.248356 0.135467,-0.451556 0.316089,-0.361245 0.970841,-0.587023 0.65476,-0.225778 1.33209,-0.158044 0.69992,0.04516 1.12889,0.474133 0.18063,0.180623 0.20321,0.428979 0.0226,0.248355 -0.15805,0.451556 z m -4.154315,0.2032 q -0.316089,0.383822 -0.970845,0.587023 -0.654756,0.180622 -1.354668,0.135466 -0.677334,-0.06773 -1.106313,-0.451556 -0.2032,-0.180622 -0.225778,-0.428978 -0.02258,-0.248356 0.135467,-0.451556 0.31609,-0.383822 0.970846,-0.587023 0.654756,-0.225778 1.33209,-0.158044 0.699912,0.04516 1.12889,0.474134 0.2032,0.180622 0.225778,0.428978 0.02258,0.248356 -0.135467,0.451556 z m 0.02258,0.903112 q 1.12889,-0.02258 1.919115,0.2032 0.79022,0.2032 1.30951,0.496712 0.51929,0.293511 0.8128,0.519289 0.29351,0.225778 0.42898,0.225778 0.24835,0.02258 0.36124,0.248356 0.11289,0.2032 0.11289,0.2032 0,0 0.0677,0.451556 0.0677,0.451556 0.15805,1.151468 0.11289,0.699912 0.2032,1.467557 0.0903,0.767645 0.15804,1.444979 0.0677,0.677334 0.0677,1.061157 0,0.632178 -0.0903,1.016001 -0.0677,0.383823 -0.45156,0.587023 -0.38382,0.180622 -1.26436,0.248356 -0.65475,0.04516 -0.94826,-0.02258 -0.29352,-0.06773 -0.36125,-0.158045 -0.0677,-0.09031 -0.0677,-0.09031 -0.2032,0.158045 -0.67734,0.225778 -0.45155,0.04516 -0.857951,0.04516 -0.4064,0 -0.4064,0 0,0 -0.51929,-0.06773 -0.519289,-0.09031 -1.286934,-0.338667 -0.745068,-0.270933 -1.512713,-0.790223 -0.745067,-0.541867 -1.241779,-1.422401 -0.496712,-0.903112 -0.474134,-2.235203 0.02258,-1.33209 0.496712,-2.167468 0.474134,-0.857957 1.151468,-1.332091 0.677334,-0.474134 1.33209,-0.677334 0.677334,-0.2032 1.12889,-0.248356 0.451556,-0.04515 0.451556,-0.04515 z m 1.693335,2.325513 q -0.11289,-0.158044 -0.496712,-0.338667 -0.361244,-0.2032 -0.699911,-0.338667 -0.31609,-0.135466 -0.31609,-0.09031 0,0.02258 -0.248355,0.383823 -0.225778,0.338667 -0.474134,1.016001 -0.225778,0.654756 -0.248356,1.580446 -0.02258,0.92569 0.248356,1.603024 0.270933,0.677334 0.654756,1.038579 0.4064,0.361244 0.745067,0.361244 0.248356,0 0.474134,-0.225778 0.225775,-0.248355 0.383825,-0.541867 0.15804,-0.316089 0.24835,-0.541867 0.0903,-0.225778 0.0903,-0.225778 z"
         style="stroke:#000000"
         id="path24848" />
      <path
         d="m 110.22258,32.840233 q -0.22578,0.316089 -0.72249,0.474134 -0.49671,0.158044 -1.06115,0.158044 -0.56445,-0.02258 -1.03858,-0.2032 -0.47414,-0.180622 -0.63218,-0.519289 -0.0677,-0.158045 0.0226,-0.338667 0.11289,-0.180623 0.2032,-0.293512 0.58702,-0.857956 1.12889,-1.670757 0.2032,-0.361245 0.67733,-0.496712 0.47413,-0.135466 1.016,-0.135466 0.69991,0 1.15147,0.225778 0.45156,0.225778 0.79022,0.564445 0.27094,0.270933 0.56445,0.519289 0.29351,0.248356 0.56444,0.519289 0.36125,0.338667 0.72249,0.654757 0.22578,0.158044 0.24836,0.428978 -0.0677,0.2032 -0.15805,0.338667 -0.0677,0.112889 -0.27093,0.2032 -0.51929,0.248356 -1.28693,0.293511 -0.74507,0.04516 -1.28694,-0.248355 -0.0677,-0.04516 -0.13547,-0.06773 -0.0677,-0.04516 -0.13546,-0.09031 -0.0903,-0.09031 -0.18063,-0.158045 -0.0903,-0.09031 -0.18062,-0.180622 z m -0.42898,1.12889 q 1.12889,-0.02258 1.91912,0.2032 0.79022,0.2032 1.30951,0.496712 0.51929,0.293511 0.8128,0.519289 0.29351,0.225778 0.42898,0.225778 0.24835,0.02258 0.36124,0.248356 0.11289,0.2032 0.11289,0.2032 0,0 0.0677,0.451556 0.0677,0.451556 0.15804,1.151468 0.11289,0.699912 0.2032,1.467557 0.0903,0.767645 0.15805,1.444979 0.0677,0.677334 0.0677,1.061157 0,0.632178 -0.0903,1.016001 -0.0677,0.383823 -0.45156,0.587023 -0.38382,0.180622 -1.26436,0.248356 -0.65475,0.04516 -0.94826,-0.02258 -0.29351,-0.06773 -0.36125,-0.158045 -0.0677,-0.09031 -0.0677,-0.09031 -0.2032,0.158045 -0.67734,0.225778 -0.45155,0.04516 -0.85795,0.04516 -0.4064,0 -0.4064,0 0,0 -0.51929,-0.06773 -0.51929,-0.09031 -1.28694,-0.338667 -0.74506,-0.270933 -1.51271,-0.790223 -0.74507,-0.541867 -1.24178,-1.422401 -0.49671,-0.903112 -0.47413,-2.235203 0.0226,-1.33209 0.49671,-2.167468 0.47413,-0.857957 1.15147,-1.332091 0.67733,-0.474134 1.33209,-0.677334 0.67733,-0.2032 1.12889,-0.248356 0.45155,-0.04515 0.45155,-0.04515 z m 1.69334,2.325513 q -0.11289,-0.158044 -0.49671,-0.338667 -0.36125,-0.2032 -0.69991,-0.338667 -0.31609,-0.135466 -0.31609,-0.09031 0,0.02258 -0.24836,0.383823 -0.22578,0.338667 -0.47413,1.016001 -0.22578,0.654756 -0.24836,1.580446 -0.0226,0.92569 0.24836,1.603024 0.27093,0.677334 0.65475,1.038579 0.4064,0.361244 0.74507,0.361244 0.24836,0 0.47413,-0.225778 0.22578,-0.248355 0.38383,-0.541867 0.15804,-0.316089 0.24835,-0.541867 0.0903,-0.225778 0.0903,-0.225778 z"
         style="stroke:#000000"
         id="path24850" />
      <path
         d="m 121.51144,33.494989 q -0.79022,0 -1.12889,-0.158045 -0.33867,-0.180622 -0.4064,-0.4064 -0.0452,-0.225778 0.0226,-0.383823 0.0677,-0.180622 0.0677,-0.180622 0,0 0.18062,-0.316089 0.2032,-0.338667 0.45156,-0.767645 0.27093,-0.451556 0.49671,-0.835379 0.24836,-0.383823 0.31609,-0.519289 0.15805,-0.248356 0.85796,-0.474134 0.69991,-0.225778 1.67075,0.06773 0.65476,0.180623 0.79023,0.428978 0.15804,0.248356 0.0903,0.428979 -0.0677,0.180622 -0.0677,0.180622 0,0 -0.22578,0.383823 -0.22578,0.361244 -0.54187,0.857956 -0.29351,0.496712 -0.54187,0.92569 -0.24835,0.4064 -0.74506,0.564445 -0.47414,0.158044 -0.88054,0.180622 -0.4064,0.02258 -0.4064,0.02258 z m -0.51929,0.474134 q 1.12889,-0.02258 1.91911,0.2032 0.79023,0.2032 1.30952,0.496712 0.51929,0.293511 0.8128,0.519289 0.29351,0.225778 0.42898,0.225778 0.24835,0.02258 0.36124,0.248356 0.11289,0.2032 0.11289,0.2032 0,0 0.0677,0.451556 0.0677,0.451556 0.15805,1.151468 0.11289,0.699912 0.2032,1.467557 0.0903,0.767645 0.15804,1.444979 0.0677,0.677334 0.0677,1.061157 0,0.632178 -0.0903,1.016001 -0.0677,0.383823 -0.45155,0.587023 -0.38382,0.180622 -1.26436,0.248356 -0.65475,0.04516 -0.94827,-0.02258 -0.29351,-0.06773 -0.36124,-0.158045 -0.0677,-0.09031 -0.0677,-0.09031 -0.2032,0.158045 -0.67734,0.225778 -0.45155,0.04516 -0.85795,0.04516 -0.4064,0 -0.4064,0 0,0 -0.51929,-0.06773 -0.51929,-0.09031 -1.28694,-0.338667 -0.74507,-0.270933 -1.51271,-0.790223 -0.74507,-0.541867 -1.24178,-1.422401 -0.49671,-0.903112 -0.47413,-2.235203 0.0226,-1.33209 0.49671,-2.167468 0.47413,-0.857957 1.15146,-1.332091 0.67734,-0.474134 1.3321,-0.677334 0.67733,-0.2032 1.12889,-0.248356 0.45155,-0.04515 0.45155,-0.04515 z m 1.69334,2.325513 q -0.11289,-0.158044 -0.49672,-0.338667 -0.36124,-0.2032 -0.69991,-0.338667 -0.31609,-0.135466 -0.31609,-0.09031 0,0.02258 -0.24835,0.383823 -0.22578,0.338667 -0.47414,1.016001 -0.22577,0.654756 -0.24835,1.580446 -0.0226,0.92569 0.24835,1.603024 0.27094,0.677334 0.65476,1.038579 0.4064,0.361244 0.74507,0.361244 0.24835,0 0.47413,-0.225778 0.22578,-0.248355 0.38382,-0.541867 0.15805,-0.316089 0.24836,-0.541867 0.0903,-0.225778 0.0903,-0.225778 z"
         style="stroke:#000000"
         id="path24852" />
      <path
         d="m 132.84546,34.082012 q 0,0 -0.4064,-0.02258 -0.4064,-0.02258 -0.90311,-0.180622 -0.47413,-0.158045 -0.72249,-0.564445 -0.24836,-0.428979 -0.56444,-0.92569 -0.29352,-0.496712 -0.51929,-0.857957 -0.22578,-0.383822 -0.22578,-0.383822 0,0 -0.0677,-0.180623 -0.0677,-0.180622 0.0677,-0.428978 0.15804,-0.248356 0.8128,-0.428978 0.99342,-0.293511 1.67076,-0.06773 0.69991,0.225778 0.85795,0.474133 0.0677,0.135467 0.29351,0.51929 0.24836,0.383822 0.49672,0.835378 0.27093,0.428979 0.45155,0.767646 0.2032,0.316089 0.2032,0.316089 0,0 0.0677,0.180622 0.0677,0.158045 0,0.383823 -0.0452,0.225778 -0.38383,0.4064 -0.33866,0.158045 -1.12889,0.158045 z m 3.90596,2.66418 q -0.0677,1.083735 -0.63218,1.738491 -0.56444,0.654756 -1.37724,0.993423 -0.8128,0.338667 -1.60303,0.451556 -0.79022,0.112889 -1.33209,0.135467 -0.51929,0 -0.51929,0 0.13547,0.745067 0.38383,1.083735 0.24835,0.316089 0.54186,0.361244 0.31609,0.04516 0.58703,-0.04516 0.27093,-0.112889 0.42898,-0.225778 0.18062,-0.135467 0.18062,-0.135467 0,0 0.24835,-0.180623 0.24836,-0.2032 0.76765,-0.383822 0.54187,-0.2032 1.35467,-0.2032 0.92569,0 1.26435,0.225778 0.33867,0.225778 0.31609,0.519289 0,0.293512 -0.13546,0.51929 -0.11289,0.225778 -0.11289,0.225778 0,0 -0.2032,0.225778 -0.2032,0.2032 -0.69992,0.496711 -0.49671,0.270934 -1.37724,0.496712 -0.88054,0.225778 -2.25778,0.248356 -1.33209,0.02258 -2.25778,-0.338667 -0.90311,-0.383823 -1.49014,-0.970846 -0.56444,-0.587023 -0.88053,-1.241779 -0.31609,-0.677334 -0.42898,-1.241779 -0.11289,-0.587023 -0.11289,-0.92569 0,-0.316089 0.0452,-0.835378 0.0677,-0.51929 0.29351,-1.083735 0.24836,-0.587023 0.74507,-1.106312 0.49671,-0.519289 1.35466,-0.835379 0.88054,-0.338667 2.23521,-0.361245 1.69333,0 2.6416,0.293512 0.94827,0.293511 1.37725,0.745067 0.45155,0.428979 0.54186,0.812801 0.11289,0.383823 0.11289,0.541867 z m -5.77991,1.806224 q 1.37724,-0.09031 2.05457,-0.541867 0.67734,-0.474134 0.79023,-1.016001 0.13546,-0.564445 -0.2032,-0.970845 -0.33867,-0.406401 -0.99343,-0.361245 -0.65475,0.02258 -0.99342,0.474134 -0.33867,0.451556 -0.47413,1.016001 -0.13547,0.564445 -0.15805,0.993423 -0.0226,0.4064 -0.0226,0.4064 z"
         style="stroke:#000000"
         id="path24854" />
      <path
         d="m 149.48526,41.329486 q 0,0 -0.0903,0.293511 -0.0677,0.293512 -0.45155,0.699912 -0.36125,0.383823 -1.19663,0.677334 -0.83538,0.293512 -2.32551,0.293512 -1.46756,0 -2.39325,-0.474134 -0.92569,-0.474134 -1.44498,-1.286935 -0.51929,-0.812801 -0.74506,-1.783646 -0.72249,-0.06773 -1.33209,-0.270934 -0.60961,-0.2032 -0.63218,-0.632178 -0.0226,-0.406401 0.49671,-0.654756 0.54187,-0.248356 1.24178,-0.383823 0,-0.180622 -0.0226,-0.383823 0,-0.2032 0,-0.383822 -0.67733,-0.09031 -1.2192,-0.293512 -0.51929,-0.2032 -0.54187,-0.587022 -0.0226,-0.428979 0.54187,-0.654757 0.56444,-0.248355 1.28693,-0.383822 0.0226,-0.293512 0.0226,-0.541868 0.0226,-0.270933 0.0226,-0.496711 0.0226,-1.196624 0.42898,-1.919113 0.42898,-0.745068 1.03858,-1.12889 0.63217,-0.406401 1.30951,-0.564445 0.67733,-0.158045 1.2192,-0.180623 1.10631,-0.06773 2.2352,0.383823 1.12889,0.451556 1.8288,1.670757 0.36125,0.609601 0.2032,0.970846 -0.13546,0.338667 -0.51929,0.496711 -0.36124,0.158045 -0.74506,0.2032 -0.38383,0.04516 -0.49671,0.04516 -0.69992,0 -1.08374,-0.2032 -0.38382,-0.2032 -0.54187,-0.474134 -0.13546,-0.293511 -0.13546,-0.519289 0,-0.180623 -0.11289,-0.361245 -0.0903,-0.2032 -0.24836,-0.270934 -0.13546,-0.06773 -0.29351,0.158045 -0.13547,0.225778 -0.22578,0.880534 -0.0226,0.293511 -0.0677,0.699912 -0.0226,0.383822 -0.0226,0.857956 1.33209,-0.02258 2.21263,0.158045 0.90311,0.180622 0.94826,0.745067 0.0452,0.541868 -0.83538,0.835379 -0.85795,0.270934 -2.30293,0.4064 0.0226,0.135467 0.0226,0.270934 0,0.135467 0,0.270934 1.12889,-0.02258 1.71591,0.180622 0.6096,0.2032 0.63218,0.72249 0.0452,0.496711 -0.56445,0.767645 -0.6096,0.270933 -1.67075,0.428978 0,0.225778 0,0.361245 0.0226,0.112889 0.0226,0.112889 0,0 0.0452,0.338667 0.0677,0.338667 0.24836,0.677334 0.2032,0.338667 0.58702,0.361245 0.4064,0.02258 0.51929,-0.09031 0.11289,-0.112889 0.0903,-0.225778 0,-0.135467 0,-0.135467 0,0 0,-0.135467 0,-0.158045 0.11289,-0.338667 0.13546,-0.2032 0.51929,-0.338667 0.38382,-0.135467 1.12889,-0.112889 0.74506,0.02258 1.08373,0.2032 0.36125,0.180622 0.45156,0.428978 0.0903,0.225778 0.0677,0.428979 -0.0226,0.180622 -0.0226,0.180622 z"
         style="stroke:#000000"
         id="path24856" />
      <path
         d="m 159.26144,32.65961 q -0.31609,0.383823 -0.97085,0.587023 -0.63218,0.180623 -1.33209,0.112889 -0.67733,-0.06773 -1.10631,-0.451556 -0.18062,-0.158044 -0.2032,-0.4064 -0.0226,-0.248356 0.13547,-0.451556 0.31608,-0.361245 0.97084,-0.587023 0.65476,-0.225778 1.33209,-0.158045 0.69991,0.04516 1.12889,0.474134 0.18062,0.180623 0.2032,0.428978 0.0226,0.248356 -0.15804,0.451556 z m -4.15432,0.203201 q -0.31609,0.383822 -0.97084,0.587022 -0.65476,0.180623 -1.35467,0.135467 -0.67734,-0.06773 -1.10631,-0.451556 -0.2032,-0.180622 -0.22578,-0.428978 -0.0226,-0.248356 0.13546,-0.451556 0.31609,-0.383823 0.97085,-0.587023 0.65476,-0.225778 1.33209,-0.158044 0.69991,0.04516 1.12889,0.474133 0.2032,0.180623 0.22578,0.428979 0.0226,0.248355 -0.13547,0.451556 z m 0.67734,1.264356 q 0.83537,-0.06773 1.28693,0.180623 0.45156,0.248356 0.54187,0.293511 0.22578,0.112889 0.4064,0.248356 0.2032,0.135467 0.2032,0.135467 0,0 0.33866,0.112889 0.33867,0.112889 0.79023,0.541867 0.45155,0.406401 0.83538,1.286935 0.38382,0.880534 0.45155,2.393247 0.0452,1.016001 -0.31609,1.715913 -0.36124,0.677334 -0.97084,1.12889 -0.58703,0.428978 -1.28694,0.677334 -0.67733,0.225778 -1.30951,0.316089 -0.6096,0.09031 -1.016,0.112889 -0.38382,0.02258 -0.38382,0.02258 0,0 -0.45156,0 -0.42898,0 -1.08373,-0.135467 -0.65476,-0.158045 -1.30952,-0.587023 -0.63217,-0.451556 -1.06115,-1.309512 -0.4064,-0.857957 -0.36125,-2.280358 0.0452,-1.422402 0.51929,-2.325514 0.49671,-0.92569 1.17405,-1.444979 0.69991,-0.51929 1.37724,-0.745068 0.69992,-0.225778 1.15147,-0.270933 0.47414,-0.06773 0.47414,-0.06773 z m 0.0903,2.212625 q 0,0 -0.29352,0.361245 -0.27093,0.361245 -0.56444,1.016001 -0.27093,0.654756 -0.27093,1.53529 0,0.857957 0.2032,1.354668 0.2032,0.496712 0.42897,0.72249 0.24836,0.2032 0.38383,0.2032 0.13546,0 0.42898,-0.112889 0.31608,-0.135467 0.56444,-0.587023 0.24836,-0.451556 0.22578,-1.422401 -0.0226,-0.812801 -0.18062,-1.309513 -0.13547,-0.496711 -0.38383,-0.880534 -0.22577,-0.4064 -0.54186,-0.880534 z"
         style="stroke:#000000"
         id="path24858" />
      <path
         d="m 169.51172,32.637033 q -0.31609,0.383822 -0.97085,0.587022 -0.63218,0.180623 -1.33209,0.112889 -0.67733,-0.06773 -1.10631,-0.451556 -0.18062,-0.158044 -0.2032,-0.4064 -0.0226,-0.248356 0.13547,-0.451556 0.31609,-0.361245 0.97084,-0.587023 0.65476,-0.225778 1.33209,-0.158044 0.69991,0.04516 1.12889,0.474133 0.18062,0.180623 0.2032,0.428979 0.0226,0.248355 -0.15804,0.451556 z m -4.15432,0.2032 q -0.31609,0.383822 -0.97084,0.587023 -0.65476,0.180622 -1.35467,0.135466 -0.67734,-0.06773 -1.10631,-0.451556 -0.2032,-0.180622 -0.22578,-0.428978 -0.0226,-0.248356 0.13547,-0.451556 0.31608,-0.383822 0.97084,-0.587023 0.65476,-0.225778 1.33209,-0.158044 0.69991,0.04515 1.12889,0.474134 0.2032,0.180622 0.22578,0.428978 0.0226,0.248356 -0.13547,0.451556 z m -3.8608,2.641603 q 0,0 0,-0.203201 0.0226,-0.2032 0.15804,-0.451556 0.13547,-0.270933 0.49671,-0.474134 0.38383,-0.2032 1.08374,-0.2032 0.85796,0 1.2192,0.248356 0.38382,0.225778 0.45156,0.564445 0.0903,0.316089 0.0452,0.632179 -0.0452,0.293511 -0.0452,0.4064 0,0.09031 0,0.677334 0.0226,0.564445 0.0903,1.354668 0.0677,0.790223 0.22578,1.557868 0.15804,0.767645 0.45155,1.286935 0.29351,0.496712 0.76765,0.474134 0.47413,-0.02258 0.63217,-0.496712 0.15805,-0.474134 0.11289,-1.174046 -0.0226,-0.699911 -0.15804,-1.399823 -0.13547,-0.699912 -0.27093,-1.196624 -0.13547,-0.519289 -0.13547,-0.587022 0,-0.09031 -0.0677,-0.31609 -0.0452,-0.248355 0,-0.541867 0.0677,-0.293511 0.38382,-0.541867 0.31609,-0.248356 1.03858,-0.316089 0.72249,-0.06773 1.12889,0.09031 0.42898,0.135467 0.6096,0.361245 0.2032,0.225778 0.24835,0.428978 0.0452,0.180622 0.0452,0.180622 0,0 0.15804,0.541868 0.15805,0.541867 0.29352,1.399823 0.13546,0.835379 0.0903,1.783646 -0.0226,0.948268 -0.4064,1.806225 -0.36125,0.835378 -1.21921,1.377245 -0.83537,0.541868 -2.34809,0.541868 -1.51271,0 -2.48355,-0.564445 -0.97085,-0.564445 -1.5353,-1.44498 -0.54186,-0.903112 -0.79022,-1.896535 -0.24835,-0.993423 -0.29351,-1.873957 -0.0452,-0.903112 -0.0226,-1.467557 0.0452,-0.564445 0.0452,-0.564445 z"
         style="stroke:#000000"
         id="path24860" />
      <path
         d="m 177.70746,31.282365 q 0.15804,0 0.74506,0.02258 0.58703,0.02258 1.35467,0.225778 0.79023,0.180623 1.53529,0.632179 0.74507,0.428978 1.26436,1.241779 0.51929,0.790223 0.56444,2.077158 0.0452,1.286934 -0.22577,2.077157 -0.24836,0.767645 -0.72249,1.151468 -0.45156,0.383823 -0.99343,0.474134 -0.51929,0.09031 -0.99342,0 -0.47413,-0.09031 -0.76764,-0.225778 0,0 -0.13547,0.135467 -0.11289,0.135466 -0.49671,0.270933 -0.38383,0.135467 -1.12889,0.112889 -0.74507,-0.02258 -1.37725,-0.270933 -0.63218,-0.248356 -1.016,-0.790223 -0.36124,-0.541868 -0.33867,-1.422402 0.0452,-1.33209 0.47414,-2.032002 0.45155,-0.699912 1.55787,-0.72249 0.74506,-0.02258 1.33209,0.203201 0.58702,0.225778 0.92569,0.474133 0.36124,0.248356 0.36124,0.338668 0,0.112889 -0.0677,0.2032 -0.0677,0.06773 -0.0677,0.06773 0,0 0.15805,0.09031 0.15804,0.06773 0.15804,0.31609 0,0.158044 0,0.474133 0.0226,0.31609 0.11289,0.564445 0.11289,0.248356 0.36125,0.248356 0.15804,0 0.27093,-0.451556 0.13547,-0.474134 0.11289,-1.151468 0,-0.699912 -0.24836,-1.399823 -0.24835,-0.699912 -0.83538,-1.196624 -0.58702,-0.496711 -1.64818,-0.564445 -1.03857,-0.06773 -1.78364,0.293512 -0.74507,0.338667 -1.2192,0.925689 -0.47414,0.564445 -0.74507,1.241779 -0.27093,0.654757 -0.38382,1.24178 -0.0903,0.564445 -0.0903,0.880534 0.0226,0.722489 0.45155,1.580446 0.42898,0.857956 1.33209,1.490135 0.92569,0.6096 2.34809,0.632178 1.06116,0.02258 1.64818,0.09031 0.58703,0.06773 0.8128,0.158045 0.24836,0.09031 0.29352,0.2032 0.0677,0.112889 0.0677,0.2032 0.0226,0.112889 -0.11289,0.293512 -0.11289,0.180622 -0.58702,0.293511 -0.45156,0.112889 -1.49014,0.09031 -0.6096,-0.02258 -1.49013,-0.135466 -0.88054,-0.135467 -1.8288,-0.428979 -0.92569,-0.316089 -1.76107,-0.857956 -0.8128,-0.564445 -1.33209,-1.399824 -0.51929,-0.857956 -0.56445,-2.099735 -0.0452,-2.05458 0.79022,-3.318937 0.83538,-1.264357 2.25778,-1.873957 1.44498,-0.609601 3.1609,-0.677334 z m 0.36124,4.267204 q -0.51929,-0.496712 -0.83538,-0.519289 -0.31609,-0.02258 -0.47413,0.248355 -0.15805,0.270934 -0.2032,0.699912 -0.0452,0.406401 -0.0226,0.835379 0.0452,0.564445 0.29351,0.993423 0.27094,0.4064 0.58703,0.632178 0.31608,0.225778 0.51928,0.225778 0.20321,0 0.38383,-0.270933 0.18062,-0.270934 0.27093,-0.541867 0.11289,-0.270934 0.11289,-0.270934 z"
         style="stroke:#000000"
         id="path24862" />
      <path
         d="m 188.18356,31.914543 0.13547,6.276629 q 0,0 0,0 0,0 0,0.02258 0,0.04516 -0.0903,0.248356 -0.0903,0.180623 -0.47413,0.361245 -0.36124,0.180622 -1.19662,0.2032 -0.0452,0 -0.11289,0 -0.85796,0 -1.26436,-0.270933 -0.4064,-0.293512 -0.54187,-0.564445 -0.11289,-0.293512 -0.11289,-0.293512 v 0.02258 l -0.11288,-6.412095 q 0,0 0,0 0,0 0,-0.02258 0,-0.06773 0.0677,-0.248356 0.0903,-0.2032 0.4064,-0.383823 0.33867,-0.180622 1.06116,-0.180622 0.15804,0 0.31609,0 0.94826,0.04516 1.35466,0.361245 0.4064,0.293511 0.47414,0.587023 0.0903,0.270933 0.0903,0.293511 0,0 0,0 0,0 0,0 z m -1.78365,8.195742 q 0.0677,0 0.11289,0 1.24178,0 1.60302,0.383822 0.38383,0.361245 0.47414,1.264357 0.0226,0.180623 0.0226,0.316089 0,0.72249 -0.45156,0.970846 -0.45156,0.248356 -1.53529,0.248356 -0.79022,0 -1.17405,-0.248356 -0.38382,-0.270934 -0.51928,-0.72249 -0.11289,-0.474134 -0.13547,-1.083734 0,-0.02258 0,-0.06773 0,-0.496711 0.24835,-0.722489 0.24836,-0.225778 0.56445,-0.270934 0.33867,-0.06773 0.58702,-0.06773 0.0677,0 0.13547,0 0.0677,0 0.0677,0 z"
         style="stroke:#000000"
         id="path24864" />
      <path
         d="m 193.80538,40.019973 q 0,0 -0.29351,0 -0.27094,0 -0.63218,-0.09031 -0.36125,-0.09031 -0.65476,-0.383822 -0.27093,-0.293512 -0.27093,-0.880535 0,-0.790223 0.33867,-1.12889 0.36124,-0.338667 0.74506,-0.428978 0.4064,-0.09031 0.54187,-0.112889 0.11289,-0.02258 0.31609,-0.02258 0.2032,0 0.4064,-0.180622 0.2032,-0.2032 0.31609,-0.767645 0.13547,-0.564445 0.0903,-1.715913 -0.0226,-0.880534 -0.2032,-1.309513 -0.15804,-0.451556 -0.36125,-0.6096 -0.2032,-0.158045 -0.36124,-0.158045 -0.13547,-0.02258 -0.13547,-0.02258 0,-0.02258 -0.22577,0.06773 -0.22578,0.06773 -0.45156,0.361245 -0.2032,0.293511 -0.15805,0.993423 0.0452,0.519289 0.13547,0.993423 0.0903,0.451556 0.0677,0.812801 -0.0226,0.338667 -0.33866,0.541867 -0.29351,0.180623 -1.08374,0.158045 -0.76764,-0.02258 -1.19662,-0.270934 -0.42898,-0.270933 -0.6096,-0.654756 -0.15805,-0.406401 -0.18062,-0.835379 -0.0226,-0.428978 0,-0.790223 0.0226,-0.361245 0.13546,-0.880534 0.13547,-0.541867 0.51929,-1.061157 0.4064,-0.541867 1.2192,-0.903112 0.81281,-0.383822 2.19005,-0.451556 1.37725,-0.06773 2.21263,0.225778 0.83537,0.270934 1.26435,0.835379 0.42898,0.564445 0.58703,1.33209 0.18062,0.745068 0.22577,1.625602 0.0677,1.174046 -0.27093,2.099735 -0.31609,0.903112 -0.85796,1.512713 -0.54186,0.587023 -1.12889,0.835379 0,0 -0.0452,0.2032 -0.0226,0.2032 -0.18062,0.474134 -0.15805,0.248355 -0.56445,0.428978 -0.38382,0.180622 -1.10631,0.158044 z m -0.2032,0.767646 q 0,0 0.27093,0 0.29351,0 0.67734,0.09031 0.4064,0.06773 0.74506,0.316089 0.33867,0.248356 0.45156,0.767645 0.11289,0.496712 -0.13547,0.790223 -0.22578,0.270934 -0.58702,0.383823 -0.36125,0.112889 -0.65476,0.135467 -0.29351,0.02258 -0.29351,0.02258 0,0 -0.29351,0 -0.29351,-0.02258 -0.69991,-0.09031 -0.38382,-0.09031 -0.69991,-0.293511 -0.31609,-0.225778 -0.36125,-0.654756 -0.0903,-0.857957 0.36125,-1.151468 0.47413,-0.293512 1.2192,-0.316089 z"
         style="stroke:#000000"
         id="path24866" />
    </g>
  </g>
</svg>
