<?xml version="1.0" encoding="UTF-8" standalone="no"?>
<!-- Created with Inkscape (http://www.inkscape.org/) -->

<svg
   width="1180"
   height="370"
   viewBox="0 0 312.20837 97.895832"
   version="1.1"
   id="svg15"
   xmlns:xlink="http://www.w3.org/1999/xlink"
   xmlns="http://www.w3.org/2000/svg"
   xmlns:svg="http://www.w3.org/2000/svg"
   xmlns:rdf="http://www.w3.org/1999/02/22-rdf-syntax-ns#"
   xmlns:cc="http://creativecommons.org/ns#"
   xmlns:dc="http://purl.org/dc/elements/1.1/">
  <title
     id="title25">redgnus</title>
  <defs
     id="defs12">
    <color-profile
       name="sRGB"
       xlink:href="file:///usr/share/color/icc/colord/sRGB.icc"
       id="color-profile8556" />
    <linearGradient
       id="linearGradient74456">
      <stop
         style="stop-color:#0e7d7e;stop-opacity:1;"
         offset="0"
         id="stop74454" />
    </linearGradient>
    <filter
       style="color-interpolation-filters:sRGB"
       id="filter39"
       x="-0.024619807"
       y="-0.091843267"
       width="1.0697561"
       height="1.2602226">
      <feFlood
         flood-opacity="0.498039"
         flood-color="rgb(0,0,0)"
         result="flood"
         id="feFlood29" />
      <feComposite
         in="flood"
         in2="SourceGraphic"
         operator="in"
         result="composite1"
         id="feComposite31" />
      <feGaussianBlur
         in="composite1"
         stdDeviation="3"
         result="blur"
         id="feGaussianBlur33" />
      <feOffset
         dx="6"
         dy="6"
         result="offset"
         id="feOffset35" />
      <feComposite
         in="SourceGraphic"
         in2="offset"
         operator="over"
         result="composite2"
         id="feComposite37" />
    </filter>
  </defs>
  <g
     id="layer1"
     style="filter:url(#filter39)"
     transform="translate(6.9686441,6.5011894)">
    <g
       aria-label="redgnus"
       id="text3769"
       style="font-size:90.3112px;line-height:1.25;font-family:'Nerko One';-inkscape-font-specification:'Nerko One';letter-spacing:0px;word-spacing:0px;stroke-width:1.058">
      <path
         d="m 4.1351304,53.440553 q 0,-0.993423 -0.2709336,-3.431826 Q 3.5932632,47.570325 3.1417072,44.499744 2.7804624,41.338852 2.3289064,38.268271 1.8773504,35.107379 1.3354831,32.668976 0.88392712,30.140262 0.52268231,29.056528 -0.38042972,26.347192 1.5161055,25.263457 q 1.9868465,-1.174045 5.5089834,-1.53529 3.5221371,-0.361245 5.0574271,0.541867 1.625602,0.812801 1.625602,0.812801 1.354668,-1.354668 4.425249,-1.896535 3.160892,-0.541867 6.592718,-0.451556 4.425249,0.09031 6.412095,1.354668 1.986847,1.264357 1.986847,2.709336 0,1.083734 -0.270934,1.625602 -0.270934,0.541867 -2.167469,1.083734 -1.806224,0.451556 -6.592718,1.625602 -2.799647,0.632178 -4.154315,3.070581 -1.354668,2.348091 -1.715913,5.508983 -0.270934,3.070581 0,6.141162 0.270934,2.980269 0.632179,5.057427 0.361244,1.986847 0.361244,2.167469 0,0.180622 0.09031,1.264357 0.180622,0.993423 -0.270934,2.25778 -0.361245,1.174046 -1.896535,2.077158 -1.535291,0.903112 -4.876805,0.903112 -3.3415148,0 -5.0574277,-0.903112 -1.7159128,-0.993424 -2.3480912,-2.167469 -0.6321785,-1.174046 -0.7224897,-2.077158 0,-0.993423 0,-0.993423 z"
         style="fill:#d90909"
         id="path35" />
      <path
         d="m 73.494049,32.307731 q -0.270933,4.51556 -2.528713,7.315208 -2.257781,2.709336 -5.508984,4.154315 -3.160892,1.354668 -6.321784,1.896535 -3.160892,0.451556 -5.328361,0.451556 -2.077158,0 -2.077158,0 0.541867,3.160892 1.535291,4.515561 0.993423,1.354668 2.167469,1.53529 1.264356,0.180622 2.348091,-0.180622 1.083734,-0.451556 1.715913,-0.993424 0.722489,-0.541867 0.722489,-0.541867 0,0 0.993424,-0.812801 0.993423,-0.812801 3.07058,-1.53529 2.167469,-0.812801 5.418673,-0.812801 3.702759,0 4.967116,0.993423 1.354668,0.903112 1.264357,2.167469 0,1.174046 -0.541868,2.167469 -0.451556,0.903112 -0.451556,0.903112 0,0 -0.8128,0.903112 -0.72249,0.812801 -2.709336,1.986847 -1.986847,1.174045 -5.508984,2.167468 -3.522137,0.903112 -9.03112,0.993424 -5.328361,0.09031 -8.940809,-1.44498 -3.612448,-1.53529 -5.96054,-3.973693 -2.348091,-2.528713 -3.612448,-5.238049 -1.174045,-2.799648 -1.715913,-5.147739 -0.451556,-2.438402 -0.451556,-3.79307 0,-1.354668 0.180623,-3.522137 0.270933,-2.167469 1.174045,-4.51556 0.993424,-2.438403 2.98027,-4.605872 1.986847,-2.167469 5.418672,-3.522137 3.522137,-1.354668 8.940809,-1.444979 6.773341,-0.09031 10.566411,1.174046 3.793071,1.264356 5.508984,3.070581 1.715912,1.806224 2.077157,3.431825 0.451556,1.625602 0.451556,2.25778 z m -23.029357,7.586141 q 5.508984,-0.451556 8.21832,-2.348091 2.709336,-1.896535 3.160892,-4.244626 0.451556,-2.348092 -0.903112,-3.973693 -1.264357,-1.715913 -3.883382,-1.535291 -2.619025,0.09031 -3.973693,1.986847 -1.354668,1.806224 -1.896535,4.244626 -0.541867,2.348091 -0.632178,4.154316 -0.09031,1.715912 -0.09031,1.715912 z"
         style="fill:#d90909"
         id="path37" />
      <path
         d="m 110.70217,0.69881027 q 0,0 1.08374,0.18062241 1.17404,0.0903112 2.61902,0.54186722 1.44498,0.3612448 2.61903,1.2643568 1.26436,0.8128009 1.35467,2.3480913 0.0903,0.9934232 0.27093,4.3349378 0.18062,3.2512032 0.36124,7.7667632 0.27094,4.51556 0.45156,9.392365 0.27093,4.786494 0.45156,9.031121 0.18062,4.154315 0.27093,6.77334 0.18062,2.619025 0.18062,2.619025 0,0 -0.0903,1.083734 0,1.083735 -0.54187,2.709336 -0.45155,1.625602 -1.71591,3.160892 -2.70933,3.341515 -6.86365,5.508984 -4.15432,2.167469 -11.379211,2.167469 -4.786494,0 -9.211743,-1.806224 -4.334938,-1.806224 -7.134585,-5.689606 -2.709336,-3.973693 -2.619025,-10.295477 0.09031,-4.786494 2.077158,-8.398942 2.077157,-3.612448 5.418672,-5.96054 3.341514,-2.438402 7.405519,-3.612448 4.154315,-1.174045 8.308635,-1.174045 L 103.38697,7.0205945 q 0,0 -0.18063,-0.8128008 -0.18062,-0.9031121 0.18063,-2.0771577 0.45155,-1.1740457 2.07715,-2.1674689 1.62561,-0.99342322 5.23805,-1.26435683 z M 104.29008,30.501507 q -2.07716,-0.180622 -3.97369,1.535291 -1.896539,1.715913 -3.160896,4.425249 -1.174046,2.619025 -1.174046,5.238049 0,3.883382 1.264357,6.683029 1.354668,2.799648 3.522135,2.799648 1.44498,0 2.4384,-1.174046 0.99343,-1.174046 1.53529,-2.348091 0.54187,-1.264357 0.54187,-1.264357 z"
         style="fill:#d90909"
         id="path39" />
      <path
         d="m 150.70992,57.323935 q 0,0 -1.35467,0.541867 -1.26435,0.541867 -3.43182,1.174045 -2.16747,0.541868 -4.87681,0.541868 -1.98684,0 -4.96711,-0.541868 -2.88996,-0.632178 -5.77992,-2.348091 -2.88996,-1.715913 -4.78649,-4.967116 -1.80623,-3.251203 -1.71592,-8.669876 0.18063,-5.418672 2.43841,-9.211742 2.25778,-3.883382 5.77991,-6.412096 3.52214,-2.528713 7.40552,-3.79307 3.97369,-1.264357 7.40552,-1.444979 4.60587,-0.270934 7.76676,0.993423 3.1609,1.174045 4.7865,2.799647 1.6256,1.535291 1.6256,2.528714 0,0.722489 0.63218,3.341514 0.63218,2.619025 1.35467,6.502407 0.8128,3.79307 1.44498,8.398942 0.63217,4.51556 0.72248,9.211743 0.0903,4.696182 -0.27093,8.760186 -0.27093,4.154316 -1.6256,7.315208 -1.26436,3.251203 -4.33494,5.057427 -3.07058,1.896535 -8.48925,1.986846 -7.31521,0.09031 -12.37264,-1.715912 -4.96711,-1.715913 -7.76676,-3.973693 -2.79965,-2.167469 -3.34151,-3.431826 -0.54187,-1.264357 -0.54187,-2.528714 0.0903,-1.264357 1.35467,-2.077157 1.35466,-0.812801 4.51556,-0.812801 3.16089,0 4.69618,0.541867 1.6256,0.632178 2.34809,1.354668 0.72249,0.72249 1.26436,1.174046 0.8128,0.632178 2.4384,2.077157 1.71591,1.535291 3.70276,1.535291 1.35467,0 2.34809,-1.896535 0.99342,-1.896536 1.44498,-5.057428 0.45156,-3.160892 0.18062,-6.953962 z m -2.25778,-28.538341 q -3.07058,0.270934 -5.41867,2.709336 -2.25778,2.438403 -3.61245,5.870229 -1.35467,3.431825 -1.53529,6.77334 -0.0903,3.341514 1.26436,5.599295 1.35467,2.167468 4.42525,2.167468 3.07058,0 4.60587,-2.077157 1.6256,-2.077158 2.07716,-5.057428 0.54186,-3.070581 0.36124,-6.231473 -0.0903,-3.251203 -0.45155,-5.599294 -0.36125,-2.348092 -0.36125,-2.98027 -0.0903,-0.993423 -0.72249,-1.083734 -0.63218,-0.09031 -0.63218,-0.09031 z"
         style="fill:#800080"
         id="path41" />
      <path
         d="m 179.69969,59.581715 q 0,0 -1.17404,0 -1.17405,0 -2.70934,-0.361245 -1.44498,-0.361245 -2.61902,-1.444979 -1.17405,-1.083735 -1.35467,-3.160893 -0.0903,-1.715912 -0.36125,-4.876804 -0.27093,-3.160893 -0.63218,-6.863652 -0.27093,-3.79307 -0.54186,-7.134585 -0.27094,-3.431826 -0.45156,-5.599295 -0.18062,-2.167468 -0.18062,-2.167468 0,0 0.0903,-0.72249 0.0903,-0.812801 0.63218,-1.806224 0.63218,-0.993423 2.07716,-1.806224 1.53529,-0.812801 4.24462,-0.903112 2.70934,-0.09031 4.24463,0.541867 1.53529,0.632178 2.16747,1.53529 0.72249,0.812801 0.8128,1.535291 0.18062,0.632178 0.18062,0.632178 0,0 1.6256,-0.8128 1.71592,-0.903113 4.33494,-1.806225 2.70934,-0.903112 5.68961,-1.083734 0.45155,0 1.71591,0 1.35467,0 2.88996,0.632178 1.6256,0.541868 3.16089,2.167469 1.6256,1.625602 2.70934,4.786494 1.08373,3.070581 1.26435,8.128008 0.27094,6.321785 0.36125,10.385789 0.18062,4.064004 -0.27094,6.321784 -0.36124,2.167469 -1.80622,3.070581 -1.35467,0.812801 -4.33494,0.812801 -2.88996,0 -4.24462,-0.812801 -1.35467,-0.812801 -1.71592,-1.896535 -0.36124,-1.174046 -0.36124,-2.077158 0,-0.541867 0.18062,-2.889959 0.18062,-2.438402 0.27093,-5.508983 0.0903,-3.160892 -0.0903,-6.141162 -0.0903,-3.070581 -0.72249,-4.967116 -0.54186,-1.986846 -1.80622,-1.896535 -1.53529,0.09031 -2.88996,1.174045 -1.26436,0.993424 -2.25778,2.348092 -0.99342,1.264357 -1.53529,2.25778 -0.54187,0.903112 -0.54187,0.903112 l 0.90311,13.636991 q 0,0 0,0.903112 0,0.903112 -0.54186,2.077158 -0.54187,1.083735 -2.07716,1.986847 -1.44498,0.903112 -4.33494,0.903112 z"
         style="fill:#800080"
         id="path43" />
      <path
         d="m 212.12125,28.334038 q 0,0 0,-0.8128 0.0903,-0.812801 0.63218,-1.806224 0.54187,-1.083735 1.98684,-1.896536 1.5353,-0.812801 4.33494,-0.812801 3.43183,0 4.87681,0.993424 1.53529,0.903112 1.80622,2.25778 0.36125,1.264357 0.18062,2.528713 -0.18062,1.174046 -0.18062,1.625602 0,0.361245 0,2.709336 0.0903,2.25778 0.36125,5.418672 0.27093,3.160892 0.90311,6.231473 0.63218,3.070581 1.80622,5.147739 1.17405,1.986846 3.07058,1.896535 1.89654,-0.09031 2.52872,-1.986846 0.63218,-1.896536 0.45155,-4.696183 -0.0903,-2.799647 -0.63218,-5.599294 -0.54186,-2.799648 -1.08373,-4.786494 -0.54187,-2.077158 -0.54187,-2.348091 0,-0.361245 -0.27093,-1.264357 -0.18062,-0.993424 0,-2.167469 0.27093,-1.174046 1.53529,-2.167469 1.26436,-0.993423 4.15432,-1.264357 2.88995,-0.270934 4.51556,0.361245 1.71591,0.541867 2.4384,1.444979 0.8128,0.903112 0.99342,1.715913 0.18062,0.72249 0.18062,0.72249 0,0 0.63218,2.167469 0.63218,2.167468 1.17405,5.599294 0.54186,3.341515 0.36124,7.134585 -0.0903,3.793071 -1.6256,7.224896 -1.44498,3.341515 -4.8768,5.508984 -3.34152,2.167469 -9.39237,2.167469 -6.05085,0 -9.93423,-2.25778 -3.88338,-2.257781 -6.14116,-5.779917 -2.16747,-3.612449 -3.1609,-7.586141 -0.99342,-3.973693 -1.17404,-7.49583 -0.18062,-3.612448 -0.0903,-5.870229 0.18062,-2.25778 0.18062,-2.25778 z"
         style="fill:#800080"
         id="path45" />
      <path
         d="m 271.99755,45.131922 q -6.77334,-0.180622 -10.56641,-1.354668 -3.79307,-1.174046 -5.41867,-2.799647 -1.53529,-1.625602 -1.89653,-3.160892 -0.36125,-1.625602 -0.36125,-2.528714 0,-0.903112 0.27093,-2.799647 0.27094,-1.896536 1.71592,-3.973693 1.44498,-2.077158 4.96711,-3.612448 3.61245,-1.535291 10.20517,-1.715913 7.2249,-0.180623 11.10828,0.812801 3.88338,0.993423 5.50898,2.348091 1.71591,1.354668 2.07716,2.438402 0.36124,0.993424 0.36124,0.993424 0,1.174045 -0.27093,2.438402 -0.27093,1.174046 -1.6256,1.986847 -1.26436,0.722489 -4.42525,0.632178 -2.52871,-0.09031 -3.79307,-0.451556 -1.26436,-0.361245 -1.89654,-0.812801 -0.54186,-0.541867 -1.17404,-1.083734 -0.54187,-0.541867 -1.71592,-0.903112 -1.08373,-0.361245 -3.52213,-0.451556 -2.98027,-0.09031 -4.51556,0.451556 -1.44498,0.451556 -1.98685,1.174045 -0.45156,0.72249 -0.54187,1.264357 0,0.451556 0,0.451556 0,0 0.18063,0.72249 0.27093,0.722489 1.80622,1.444979 1.6256,0.72249 5.77992,0.812801 7.85707,0.270934 12.01139,1.53529 4.24462,1.174046 5.96054,2.799648 1.80622,1.625601 2.07715,3.251203 0.36125,1.53529 0.36125,2.438402 0,0.903112 -0.63218,2.799648 -0.54187,1.896535 -2.4384,3.973693 -1.89654,2.077157 -5.87023,3.612448 -3.88338,1.53529 -10.4761,1.715913 -7.13458,0.180622 -11.10828,-0.812801 -3.88338,-0.993423 -5.59929,-2.348091 -1.6256,-1.354669 -1.98685,-2.348092 -0.36124,-1.083734 -0.36124,-1.083734 0,-1.264357 0.27093,-2.438403 0.36124,-1.174045 1.6256,-1.896535 1.35467,-0.812801 4.42525,-0.72249 2.61903,0.09031 3.79307,0.451556 1.26436,0.361245 1.89654,0.903112 0.63217,0.451557 1.17404,0.993424 0.54187,0.541867 1.71592,0.903112 1.17404,0.361245 3.52213,0.451556 2.98027,0.09031 4.42525,-0.361245 1.53529,-0.541867 2.07716,-1.264357 0.54187,-0.72249 0.54187,-1.174046 0,-0.541867 0,-0.541867 0,0 -0.18063,-0.722489 -0.18062,-0.812801 -1.80622,-1.535291 -1.53529,-0.812801 -5.68961,-0.903112 z"
         style="fill:#800080"
         id="path47" />
    </g>
    <g
       aria-label="100% FREE SOFTWARE"
       id="text314424"
       style="font-size:18.3444px;line-height:1.25;font-family:'Nerko One';-inkscape-font-specification:'Nerko One';letter-spacing:0px;word-spacing:0px;stroke-width:0.264583">
      <path
         d="m 145.07977,5.0404455 q 0.38523,0 0.73377,0.036689 0.36689,0.018344 0.60537,0.2201328 0.23847,0.2017884 0.27516,0.733776 0.0183,0.2568216 0.0734,0.8621868 0.0734,0.5870208 0.14676,1.3758301 0.0917,0.7888092 0.18344,1.6326516 0.11007,0.8254984 0.20179,1.5959624 0.0917,0.752121 0.1651,1.302453 0.0734,0.550332 0.11006,0.733776 0.055,0.275166 0.11007,0.660398 0.055,0.366888 0,0.733776 -0.055,0.348544 -0.34854,0.587021 -0.27517,0.238477 -0.91722,0.238477 -0.62371,0 -0.97226,-0.12841 -0.34854,-0.146756 -0.49529,-0.348544 -0.14676,-0.201788 -0.18345,-0.366888 -0.0183,-0.183444 -0.0367,-0.256822 -0.0183,-0.05503 -0.0917,-0.513643 -0.0734,-0.45861 -0.18344,-1.100664 -0.0917,-0.642054 -0.20179,-1.265764 -0.0917,-0.642054 -0.1651,-1.063975 -0.0734,-0.421921 -0.0734,-0.421921 0,0 -0.23848,0.01834 -0.22013,0 -0.55033,-0.01834 -0.31185,-0.03669 -0.60536,-0.146755 -0.27517,-0.128411 -0.40358,-0.3852326 -0.11007,-0.275166 0.055,-0.733776 0.22014,-0.5870208 0.45861,-1.2657637 0.23848,-0.6787428 0.55034,-1.3024524 0.33019,-0.6237096 0.75212,-1.008942 0.44026,-0.4035768 1.04563,-0.4035768 z"
         style="fill:#d90909"
         id="path50" />
      <path
         d="m 152.30745,5.2238895 q 0,0 0.38523,0.018344 0.38524,0.018344 0.95391,0.2017884 0.56868,0.1650996 1.1557,0.642054 0.58702,0.45861 0.9906,1.3391412 0.42192,0.8805313 0.47695,2.3297389 0.0734,2.2930496 -0.31185,3.6138466 -0.38523,1.302453 -1.22908,1.852785 -0.84384,0.531987 -2.14629,0.531987 -1.94451,0 -3.02683,-1.339141 -1.08232,-1.357486 -1.08232,-4.29259 0,-1.4675516 0.31186,-2.4214605 0.31185,-0.9539088 0.84384,-1.4858964 0.53199,-0.5319876 1.21073,-0.7521204 0.69709,-0.2384772 1.46755,-0.2384772 z m 0.12841,1.467552 q -0.12841,0.036689 -0.29351,0.091722 -0.14675,0.055033 -0.29351,0.3485436 -0.12841,0.2935104 -0.23847,0.9905977 -0.0917,0.6970872 -0.12842,1.9995392 -0.0367,1.485897 0.055,2.348084 0.0917,0.843842 0.27516,1.21073 0.20179,0.348544 0.47696,0.366888 0.22013,0.01834 0.40357,-0.110066 0.20179,-0.128411 0.34855,-0.531988 0.1651,-0.403577 0.23848,-1.192386 0.0917,-0.788809 0.0917,-2.091262 0,-1.302452 -0.14676,-1.9995392 -0.12841,-0.7154317 -0.3302,-1.0089421 -0.18344,-0.3118548 -0.3302,-0.366888 -0.12841,-0.055033 -0.12841,-0.055033 z"
         style="fill:#d90909"
         id="path52" />
      <path
         d="m 160.74586,5.2238895 q 0,0 0.38523,0.018344 0.38523,0.018344 0.95391,0.2017884 0.56868,0.1650996 1.1557,0.642054 0.58702,0.45861 0.9906,1.3391412 0.42192,0.8805313 0.47695,2.3297389 0.0734,2.2930496 -0.31186,3.6138466 -0.38523,1.302453 -1.22907,1.852785 -0.84384,0.531987 -2.14629,0.531987 -1.94451,0 -3.02683,-1.339141 -1.08232,-1.357486 -1.08232,-4.29259 0,-1.4675516 0.31185,-2.4214605 0.31186,-0.9539088 0.84385,-1.4858964 0.53198,-0.5319876 1.21073,-0.7521204 0.69708,-0.2384772 1.46755,-0.2384772 z m 0.12841,1.467552 q -0.12841,0.036689 -0.29351,0.091722 -0.14676,0.055033 -0.29351,0.3485436 -0.12841,0.2935104 -0.23848,0.9905977 -0.0917,0.6970872 -0.12841,1.9995392 -0.0367,1.485897 0.055,2.348084 0.0917,0.843842 0.27517,1.21073 0.20179,0.348544 0.47695,0.366888 0.22014,0.01834 0.40358,-0.110066 0.20179,-0.128411 0.34855,-0.531988 0.16509,-0.403577 0.23847,-1.192386 0.0917,-0.788809 0.0917,-2.091262 0,-1.302452 -0.14675,-1.9995392 -0.12841,-0.7154317 -0.3302,-1.0089421 -0.18344,-0.3118548 -0.3302,-0.366888 -0.12841,-0.055033 -0.12841,-0.055033 z"
         style="fill:#d90909"
         id="path54" />
      <path
         d="m 168.85407,6.8748855 q 0,0.6603984 -0.51365,0.9722533 -0.49529,0.2935104 -1.13735,0.3301992 -0.47695,0 -0.8255,-0.1650996 -0.3302,-0.1650996 -0.58702,-0.4035769 -0.25682,-0.2568216 -0.25682,-0.7521204 0,-0.366888 0.18345,-0.6237096 0.23847,-0.3118548 0.66039,-0.4769544 0.42193,-0.1650996 0.86219,-0.1650996 0.36689,0 0.69709,0.1100664 0.3302,0.1100664 0.58702,0.366888 0.11007,0.1467552 0.22013,0.3118548 0.11007,0.1650996 0.11007,0.4035768 0,0.018344 0,0.036689 0,0.018344 0,0.055033 z m 2.42146,2.7883489 -0.51364,0.9539086 q -0.45861,0.862187 -0.93557,1.724374 -0.45861,0.862187 -0.93556,1.706029 -0.11007,0.238477 -0.25682,0.45861 -0.12842,0.220133 -0.25683,0.45861 -0.0734,0.183444 -0.1651,0.330199 -0.0734,0.128411 -0.25682,0.201789 -0.4953,0.238477 -1.19238,0.238477 -0.42192,0 -0.80716,-0.128411 -0.36689,-0.146755 -0.4953,-0.45861 -0.055,-0.110066 0.0183,-0.275166 0.0917,-0.165099 0.14675,-0.256822 0.38524,-0.715431 0.77047,-1.394174 0.38523,-0.678743 0.75212,-1.394174 l 0.51364,-0.953909 q 0.23848,-0.45861 0.51365,-0.9172202 0.27516,-0.4769544 0.49529,-0.9539088 0.23848,-0.4402656 0.4953,-0.8988756 l 0.73378,-1.3207969 q 0.0734,-0.1284108 0.12841,-0.2568216 l 0.14675,-0.275166 q 0.0917,-0.183444 0.27517,-0.2568216 0.18344,-0.091722 0.38523,-0.1467552 0.51365,-0.1467552 1.06398,-0.073378 0.56867,0.073378 0.89887,0.3118548 0.11007,0.073378 0.1651,0.2201328 0.055,0.1467552 -0.0367,0.3118548 l -0.12841,0.2568216 q -0.38523,0.7154316 -0.77046,1.3941745 -0.38523,0.6787428 -0.75212,1.3941744 z M 167.4232,6.9666075 V 6.7648191 q 0,-0.1467552 -0.0734,-0.2568216 -0.0734,-0.1100664 -0.1651,-0.2017884 -0.22014,0.2201328 -0.22014,0.5686764 0,0.275166 0.1651,0.4952988 0.0183,0.018344 0.0367,0.036689 0.0183,0 0.0183,0.018344 0.0183,-0.018344 0.0367,-0.018344 0.0183,-0.018344 0.0367,-0.036689 0.0734,-0.091722 0.11006,-0.183444 0.055,-0.091722 0.055,-0.2201328 z m 2.60491,6.7323945 q 0.25682,-0.238477 0.60536,-0.348543 0.34855,-0.128411 0.71544,-0.128411 0.62371,0 1.13735,0.330199 0.53199,0.330199 0.53199,0.990598 0,0.660398 -0.51365,0.972253 -0.51364,0.293511 -1.13735,0.311855 -0.0367,0 -0.0917,0 -0.3302,0 -0.64206,-0.110066 -0.29351,-0.128411 -0.51364,-0.275166 -0.40358,-0.366888 -0.40358,-0.935565 0,-0.476954 0.31186,-0.807154 z m 1.55927,0.935565 v -0.201789 q 0,-0.146755 -0.0734,-0.256821 -0.055,-0.110067 -0.14676,-0.201789 -0.0367,0.03669 -0.0734,0.05503 -0.1651,0.220132 -0.1651,0.531987 0,0.366888 0.23848,0.531988 0.0183,-0.03669 0.055,-0.05503 0.0734,-0.09172 0.11007,-0.183444 0.055,-0.09172 0.055,-0.220133 z"
         style="fill:#d90909"
         id="path56" />
      <path
         d="m 181.51167,15.753575 q -0.62371,0 -0.97226,-0.146755 -0.3302,-0.146755 -0.45861,-0.330199 -0.12841,-0.183444 -0.14675,-0.330199 -0.0184,-0.146755 -0.0184,-0.146755 0,0 -0.0917,-0.495299 -0.0734,-0.513644 -0.20179,-1.320797 -0.12841,-0.807154 -0.29351,-1.742718 -0.14675,-0.953909 -0.29351,-1.8344402 -0.12841,-0.8988756 -0.23847,-1.559274 -0.11007,-0.6787429 -0.1651,-0.9172201 -0.0734,-0.366888 0.0367,-0.5870208 0.12842,-0.2384772 0.31186,-0.3485436 0.20179,-0.1284108 0.34854,-0.1650996 0.1651,-0.055033 0.1651,-0.055033 0,0 0.45861,-0.073378 0.47696,-0.091722 1.17404,-0.2201328 0.69709,-0.1284108 1.43087,-0.2384772 0.73377,-0.1284108 1.28411,-0.2017884 0.55033,-0.073378 0.86218,0.055033 0.31186,0.1100664 0.45861,0.2935104 0.14676,0.183444 0.18345,0.3485436 0.0367,0.1467552 0.0367,0.1467552 0,0 0.0367,0.2935104 0.055,0.2935104 0.11007,0.6970872 0.055,0.3852324 0.0734,0.733776 0.0367,0.5136433 -0.23848,0.8438425 -0.27517,0.3301992 -1.19239,0.4219212 -0.60536,0.055033 -0.86218,-0.1284108 -0.25682,-0.183444 -0.31186,-0.3852324 -0.0367,-0.2017884 -0.0367,-0.2017884 l -0.11006,-1.2107305 -1.1557,0.1100664 0.64205,3.1552365 q 0,0 0.23848,0 0.23848,0 0.55033,0.05503 0.31186,0.03669 0.56868,0.183444 0.25682,0.146755 0.31186,0.45861 0.055,0.29351 -0.1651,0.476954 -0.20179,0.183444 -0.4953,0.256822 -0.27517,0.07338 -0.51365,0.110066 -0.22013,0.01834 -0.22013,0.01834 0,0 0.11007,0.78881 0.11006,0.770464 0.23847,1.907817 0.0734,0.568677 -0.14675,0.843843 -0.20179,0.275166 -0.51364,0.366888 -0.29351,0.09172 -0.55034,0.07338 -0.23847,0 -0.23847,0 z"
         style="fill:#d90909"
         id="path58" />
      <path
         d="m 187.67536,14.762978 -0.84384,-7.9981589 q 0,0 -0.055,-0.1100664 -0.0367,-0.1100664 -0.0183,-0.2935104 0.0183,-0.183444 0.20179,-0.3852324 0.20179,-0.2017884 0.67875,-0.366888 0.64205,-0.2384772 1.50424,-0.3852324 0.88053,-0.1650996 1.85278,-0.091722 0.9906,0.073378 1.94451,0.5870208 0.56867,0.2935104 0.84384,0.8438424 0.27517,0.550332 0.3302,1.1740416 0.055,0.6237097 0,1.1923861 -0.0367,0.5686764 -0.12841,0.9355644 -0.0734,0.3668882 -0.0734,0.3668882 0,0 -0.12841,0.275166 -0.12841,0.275166 -0.4953,0.623709 -0.34854,0.3302 -1.02729,0.531988 l 2.60491,2.806693 q 0,0 0.12841,0.146755 0.12841,0.146756 0.20179,0.366889 0.0917,0.201788 -0.0367,0.421921 -0.11007,0.201788 -0.60537,0.348543 -0.51364,0.146756 -0.91722,0.07338 -0.38523,-0.07338 -0.64205,-0.238477 -0.23848,-0.1651 -0.36689,-0.311855 -0.12841,-0.146755 -0.12841,-0.146755 l -2.42146,-2.990138 0.60537,2.586561 q 0,0 0.0367,0.1651 0.0367,0.146755 -0.0367,0.348543 -0.0734,0.201789 -0.36689,0.366888 -0.29351,0.146755 -0.93557,0.146755 -0.64205,0 -1.00894,-0.146755 -0.34854,-0.146755 -0.4953,-0.348543 -0.14675,-0.201789 -0.18344,-0.348544 -0.0183,-0.146755 -0.0183,-0.146755 z m 1.74272,-8.0165033 0.44027,3.6872243 q 0,0 0.20179,0.01835 0.22013,0.01834 0.51364,-0.03669 0.31185,-0.05503 0.58702,-0.256822 0.29351,-0.2201326 0.47696,-0.6603982 0.18344,-0.45861 0.12841,-1.2474192 -0.055,-0.7521205 -0.29351,-1.1006641 -0.23848,-0.366888 -0.58703,-0.45861 -0.34854,-0.1100664 -0.73377,-0.055033 -0.38523,0.036689 -0.73378,0.1100664 z"
         style="fill:#d90909"
         id="path60" />
      <path
         d="m 195.89363,6.4529643 q 0,0 -0.0367,-0.1467552 -0.0367,-0.1650996 0.0183,-0.3852324 0.0734,-0.2201328 0.3302,-0.4035768 0.27517,-0.183444 0.86219,-0.2384772 0.58702,-0.055033 1.3208,-0.091722 0.75212,-0.036689 1.43086,-0.073378 0.69709,-0.036689 1.13735,-0.055033 0.44027,-0.018344 0.44027,-0.018344 0,0 0.23848,0.018344 0.25682,0 0.58702,0.073378 0.34854,0.055033 0.62371,0.2384772 0.27516,0.1650996 0.3302,0.4952988 0.055,0.3301992 -0.12842,0.5136432 -0.18344,0.183444 -0.44026,0.275166 -0.25682,0.073378 -0.45861,0.091722 -0.20179,0.018344 -0.20179,0.018344 l -2.9351,0.1650996 q 0,0 0.055,0.2384772 0.055,0.2384772 0.11007,0.550332 0.0734,0.2935105 0.0917,0.5136433 0.0183,0.2017884 0.0367,0.5319876 0.0183,0.3118548 0.0367,0.5686764 0.0183,0.2384772 0.0183,0.2384772 h 1.35749 q 0,0 0.20178,0.018344 0.20179,0 0.45861,0.073378 0.27517,0.055033 0.47696,0.183444 0.20179,0.1284108 0.22013,0.3852326 0.0183,0.330199 -0.25682,0.495299 -0.25682,0.165099 -0.55033,0.220132 -0.27517,0.03669 -0.34855,0.05503 -0.055,0 -0.29351,0.01834 -0.23847,0 -0.53198,0 -0.27517,0 -0.4953,0 -0.22014,0 -0.22014,0 0,0 0,0.275166 0.0183,0.256822 0.0367,0.605365 0.0183,0.348544 0,0.605365 0,0.238478 -0.0183,0.587021 -0.0183,0.330199 -0.0367,0.587021 -0.0183,0.238477 -0.0183,0.238477 l 2.47649,-0.09172 q 0,0 0.23848,0 0.23847,-0.01834 0.56867,0.03669 0.3302,0.05503 0.58702,0.220133 0.25683,0.165099 0.27517,0.495299 0.0367,0.330199 -0.18344,0.531987 -0.22014,0.201789 -0.51365,0.293511 -0.29351,0.09172 -0.53198,0.128411 -0.22014,0.01834 -0.22014,0.01834 l -3.96239,0.201788 q 0,0 -0.29351,0 -0.27516,0.01835 -0.64205,-0.03669 -0.36689,-0.07338 -0.64206,-0.275166 -0.27516,-0.220133 -0.25682,-0.660399 0.0367,-0.587021 0.0734,-1.83444 0.0367,-1.265764 -0.0367,-2.9534484 -0.0734,-1.6876848 -0.38523,-3.5404693 z"
         style="fill:#d90909"
         id="path62" />
      <path
         d="m 204.277,6.4529643 q 0,0 -0.0367,-0.1467552 -0.0367,-0.1650996 0.0183,-0.3852324 0.0734,-0.2201328 0.3302,-0.4035768 0.27517,-0.183444 0.86219,-0.2384772 0.58702,-0.055033 1.3208,-0.091722 0.75212,-0.036689 1.43086,-0.073378 0.69709,-0.036689 1.13735,-0.055033 0.44027,-0.018344 0.44027,-0.018344 0,0 0.23847,0.018344 0.25683,0 0.58703,0.073378 0.34854,0.055033 0.62371,0.2384772 0.27516,0.1650996 0.33019,0.4952988 0.055,0.3301992 -0.12841,0.5136432 -0.18344,0.183444 -0.44026,0.275166 -0.25682,0.073378 -0.45861,0.091722 -0.20179,0.018344 -0.20179,0.018344 l -2.9351,0.1650996 q 0,0 0.055,0.2384772 0.055,0.2384772 0.11007,0.550332 0.0734,0.2935105 0.0917,0.5136433 0.0183,0.2017884 0.0367,0.5319876 0.0183,0.3118548 0.0367,0.5686764 0.0183,0.2384772 0.0183,0.2384772 h 1.35748 q 0,0 0.20179,0.018344 0.20179,0 0.45861,0.073378 0.27517,0.055033 0.47696,0.183444 0.20179,0.1284108 0.22013,0.3852326 0.0183,0.330199 -0.25682,0.495299 -0.25682,0.165099 -0.55033,0.220132 -0.27517,0.03669 -0.34855,0.05503 -0.055,0 -0.29351,0.01834 -0.23847,0 -0.53198,0 -0.27517,0 -0.4953,0 -0.22014,0 -0.22014,0 0,0 0,0.275166 0.0183,0.256822 0.0367,0.605365 0.0183,0.348544 0,0.605365 0,0.238478 -0.0183,0.587021 -0.0183,0.330199 -0.0367,0.587021 -0.0183,0.238477 -0.0183,0.238477 l 2.4765,-0.09172 q 0,0 0.23848,0 0.23847,-0.01834 0.56867,0.03669 0.3302,0.05503 0.58702,0.220133 0.25682,0.165099 0.27517,0.495299 0.0367,0.330199 -0.18344,0.531987 -0.22014,0.201789 -0.51365,0.293511 -0.29351,0.09172 -0.53199,0.128411 -0.22013,0.01834 -0.22013,0.01834 l -3.96239,0.201788 q 0,0 -0.29351,0 -0.27517,0.01835 -0.64205,-0.03669 -0.36689,-0.07338 -0.64206,-0.275166 -0.27516,-0.220133 -0.25682,-0.660399 0.0367,-0.587021 0.0734,-1.83444 0.0367,-1.265764 -0.0367,-2.9534484 -0.0734,-1.6876848 -0.38523,-3.5404693 z"
         style="fill:#d90909"
         id="path64" />
      <path
         d="m 223.35512,8.4341596 q -0.62371,0 -0.9539,-0.1467552 -0.3302,-0.1650996 -0.47696,-0.366888 -0.12841,-0.2017885 -0.14675,-0.3668881 -0.0183,-0.183444 -0.0183,-0.2201328 0,-0.091722 -0.0734,-0.2935104 -0.055,-0.2201328 -0.36688,-0.2201328 -0.51365,0 -0.91722,0.3118548 -0.38524,0.3118548 -0.42193,0.9172201 -0.0367,0.6053652 0.31186,1.0456308 0.34854,0.4402656 1.37583,0.45861 0.51364,0 1.08232,0.1467552 0.56868,0.1467552 1.06397,0.4769548 0.51365,0.311854 0.80716,0.862186 0.31185,0.531988 0.31185,1.339142 -0.0183,1.614307 -0.86218,2.494838 -0.84385,0.880531 -2.8067,0.880531 -1.30245,0 -2.09126,-0.311854 -0.78881,-0.3302 -1.1557,-0.770465 -0.34854,-0.440266 -0.36688,-0.78881 -0.0183,-0.348543 0.0367,-0.678742 0.0734,-0.3302 0.38524,-0.568677 0.3302,-0.238477 1.04563,-0.29351 0.73377,-0.05503 1.04563,0.128411 0.31185,0.165099 0.38523,0.385232 0.0917,0.220133 0.0917,0.275166 0,0.05503 0.0367,0.275166 0.055,0.201788 0.18345,0.403577 0.14675,0.183444 0.40357,0.183444 0.38524,0 0.6604,-0.311855 0.27517,-0.311855 0.34854,-1.008942 0.12842,-1.37583 -1.37583,-1.37583 -0.36688,0 -0.9539,-0.110066 -0.56868,-0.128411 -1.13736,-0.440266 -0.56867,-0.330199 -0.95391,-0.91722 -0.38523,-0.5870208 -0.36688,-1.5409296 0.0183,-0.9539089 0.34854,-1.5592741 0.3302,-0.6237096 0.86219,-0.9539088 0.55033,-0.3485436 1.19238,-0.4952988 0.6604,-0.1467552 1.30246,-0.1650996 0.86218,-0.018344 1.65099,0.2017884 0.80715,0.2201328 1.33914,0.6787428 0.55033,0.4402656 0.62371,1.1556972 0.055,0.5319876 -0.1651,0.8071537 -0.20179,0.2568216 -0.51364,0.366888 -0.29351,0.091722 -0.53199,0.1100664 -0.23848,0 -0.23848,0 z"
         style="fill:#d90909"
         id="path66" />
      <path
         d="m 225.83162,10.415355 q 0,-1.4675522 0.51364,-2.6782827 0.51365,-1.2290748 1.39418,-1.9445064 0.88053,-0.733776 1.9445,-0.733776 0.78881,0 1.50424,0.4219212 0.71544,0.4035768 1.26577,1.1556972 0.55033,0.733776 0.86218,1.7060293 0.31186,0.9722532 0.31186,2.0729174 0,1.100664 -0.31186,2.072917 -0.31185,0.972253 -0.86218,1.724374 -0.55033,0.733776 -1.26577,1.155697 -0.71543,0.403577 -1.50424,0.403577 -1.06397,0 -1.9445,-0.715432 -0.88053,-0.733776 -1.39418,-1.944506 -0.51364,-1.210731 -0.51364,-2.696627 z m 2.80669,-0.07338 q 0,1.063975 0.14676,1.962851 0.14675,0.880531 0.40357,1.412519 0.25683,0.513643 0.56868,0.513643 0.31186,0 0.56868,-0.513643 0.25682,-0.531988 0.40357,-1.412519 0.14676,-0.898876 0.14676,-1.962851 0,-1.0823194 -0.14676,-1.9628506 -0.14675,-0.8805313 -0.40357,-1.4125189 -0.25682,-0.5319876 -0.56868,-0.5319876 -0.31185,0 -0.56868,0.5319876 -0.25682,0.5319876 -0.40357,1.4125189 -0.14676,0.8805312 -0.14676,1.9628506 z"
         style="fill:#d90909"
         id="path68" />
      <path
         d="m 237.38856,15.753575 q -0.62371,0 -0.97225,-0.146755 -0.3302,-0.146755 -0.45861,-0.330199 -0.12841,-0.183444 -0.14676,-0.330199 -0.0183,-0.146755 -0.0183,-0.146755 0,0 -0.0917,-0.495299 -0.0734,-0.513644 -0.20179,-1.320797 -0.12841,-0.807154 -0.29351,-1.742718 -0.14676,-0.953909 -0.29351,-1.8344402 -0.12841,-0.8988756 -0.23848,-1.559274 -0.11006,-0.6787429 -0.1651,-0.9172201 -0.0734,-0.366888 0.0367,-0.5870208 0.12841,-0.2384772 0.31186,-0.3485436 0.20178,-0.1284108 0.34854,-0.1650996 0.1651,-0.055033 0.1651,-0.055033 0,0 0.45861,-0.073378 0.47695,-0.091722 1.17404,-0.2201328 0.69709,-0.1284108 1.43086,-0.2384772 0.73378,-0.1284108 1.28411,-0.2017884 0.55033,-0.073378 0.86219,0.055033 0.31185,0.1100664 0.45861,0.2935104 0.14675,0.183444 0.18344,0.3485436 0.0367,0.1467552 0.0367,0.1467552 0,0 0.0367,0.2935104 0.055,0.2935104 0.11007,0.6970872 0.055,0.3852324 0.0734,0.733776 0.0367,0.5136433 -0.23847,0.8438425 -0.27517,0.3301992 -1.19239,0.4219212 -0.60536,0.055033 -0.86219,-0.1284108 -0.25682,-0.183444 -0.31185,-0.3852324 -0.0367,-0.2017884 -0.0367,-0.2017884 l -0.11007,-1.2107305 -1.15569,0.1100664 0.64205,3.1552365 q 0,0 0.23848,0 0.23848,0 0.55033,0.05503 0.31185,0.03669 0.56868,0.183444 0.25682,0.146755 0.31185,0.45861 0.055,0.29351 -0.1651,0.476954 -0.20179,0.183444 -0.4953,0.256822 -0.27516,0.07338 -0.51364,0.110066 -0.22013,0.01834 -0.22013,0.01834 0,0 0.11006,0.78881 0.11007,0.770464 0.23848,1.907817 0.0734,0.568677 -0.14675,0.843843 -0.20179,0.275166 -0.51365,0.366888 -0.29351,0.09172 -0.55033,0.07338 -0.23848,0 -0.23848,0 z"
         style="fill:#d90909"
         id="path70" />
      <path
         d="m 245.18491,7.0399851 q -0.23847,0.036689 -0.67874,0.055033 -0.44027,0 -0.89888,-0.055033 -0.45861,-0.055033 -0.78881,-0.2017884 -0.33019,-0.1650996 -0.36688,-0.4769544 -0.0184,-0.3118548 0.18344,-0.4952988 0.22013,-0.183444 0.51364,-0.275166 0.29351,-0.1100664 0.51365,-0.1284108 0.23847,-0.036689 0.23847,-0.036689 l 5.13644,-0.4769544 q 0,0 0.25682,0 0.25682,-0.018344 0.58702,0.018344 0.34854,0.036689 0.62371,0.183444 0.27516,0.1284108 0.29351,0.4219212 0.0367,0.2935104 -0.18345,0.4952988 -0.20178,0.183444 -0.49529,0.3118548 -0.29351,0.1100664 -0.51365,0.1650996 -0.22013,0.036689 -0.22013,0.036689 l -1.17404,0.183444 q 0.0734,0.45861 0.1651,1.3024525 0.0917,0.825498 0.18344,1.83444 0.0917,1.0089424 0.1651,1.9811954 0.0734,0.972253 0.11007,1.742718 0.055,0.770465 0.055,1.100664 0,0.421921 -0.23848,0.642054 -0.22013,0.201788 -0.53198,0.29351 -0.29351,0.07338 -0.53199,0.09172 -0.22013,0 -0.22013,0 0,0 -0.23848,0 -0.23848,-0.01834 -0.55033,-0.146755 -0.29351,-0.128411 -0.53199,-0.476954 -0.22013,-0.348544 -0.22013,-1.045631 0,-0.62371 -0.0734,-1.522585 -0.055,-0.898876 -0.14676,-1.852785 -0.0917,-0.972253 -0.20178,-1.797751 -0.0917,-0.825498 -0.1651,-1.3391413 -0.055,-0.5319876 -0.055,-0.5319876 z"
         style="fill:#d90909"
         id="path72" />
      <path
         d="m 253.05463,5.9209767 q 0,0 0.25682,0 0.25682,-0.018344 0.60536,0.091722 0.34855,0.091722 0.62371,0.3852324 0.29351,0.275166 0.34855,0.8621868 0.0367,0.45861 0.14675,1.1923861 0.11007,0.7154316 0.23848,1.5042408 0.12841,0.7888092 0.23847,1.4858962 0.12842,0.678743 0.20179,1.119009 0.0917,0.440265 0.0917,0.440265 l 0.7888,-2.935104 q 0,0 0.0917,-0.2568214 0.0917,-0.275166 0.3302,-0.5319876 0.25682,-0.2568216 0.75212,-0.2568216 0.4953,0 0.75212,0.2017884 0.25682,0.183444 0.36688,0.45861 0.12842,0.275166 0.20179,0.5319872 0.055,0.183444 0.1651,0.62371 0.12841,0.421921 0.23848,0.898876 0.12841,0.476954 0.22013,0.807153 0.0917,0.330199 0.0917,0.330199 l 0.1651,-1.522585 0.77047,-5.3932535 q 0,0 0.11007,-0.2384772 0.12841,-0.2568216 0.47695,-0.4952988 0.36689,-0.2384772 1.08232,-0.183444 1.08232,0.073378 1.3208,0.4402656 0.25682,0.366888 0.0734,0.8988756 -0.0917,0.2568216 -0.27516,1.1190084 -0.18345,0.8438425 -0.42192,2.0362285 -0.23848,1.1923864 -0.45861,2.5131824 -0.22014,1.302453 -0.38524,2.476494 -0.0734,0.605366 -0.33019,0.935565 -0.23848,0.311855 -0.51365,0.440266 -0.27516,0.12841 -0.47695,0.146755 -0.20179,0.01834 -0.20179,0.01834 0,0 -0.23848,0 -0.23848,0.01835 -0.58702,-0.07338 -0.3302,-0.09172 -0.6604,-0.385233 -0.31185,-0.29351 -0.4953,-0.91722 -0.34854,-1.247419 -0.60536,-2.091262 -0.25682,-0.843842 -0.25682,-0.843842 l -1.02729,3.118548 q 0,0 -0.11007,0.220133 -0.11006,0.220133 -0.44026,0.440266 -0.31186,0.220132 -0.93557,0.220132 -0.93556,0 -1.30245,-0.29351 -0.34854,-0.311855 -0.55033,-0.990598 -0.055,-0.238477 -0.22013,-0.843842 -0.1651,-0.62371 -0.36689,-1.449208 -0.20179,-0.825498 -0.42192,-1.687685 -0.22014,-0.8805308 -0.40358,-1.6143068 -0.18344,-0.7521204 -0.31185,-1.2107305 -0.11007,-0.4769544 -0.11007,-0.4769544 0,0 -0.0367,-0.1650996 -0.0367,-0.1650996 0.0367,-0.3852324 0.0734,-0.2384772 0.36689,-0.4402656 0.31185,-0.2017884 0.9906,-0.275166 z"
         style="fill:#d90909"
         id="path74" />
      <path
         d="m 266.28089,5.8475991 q -0.0183,0 0.055,-0.2017884 0.0917,-0.2201328 0.40357,-0.4219212 0.31186,-0.2017884 1.02729,-0.2201328 0.64205,-0.018344 0.97225,0.1650996 0.3302,0.1650996 0.44027,0.3301992 0.12841,0.1650996 0.12841,0.1650996 0,0 0.20179,0.4769544 0.20179,0.4769544 0.55033,1.2657636 0.34854,0.7704649 0.77046,1.7243737 0.42193,0.9539092 0.84385,1.9445062 0.44026,0.972253 0.80715,1.83444 0.38523,0.843843 0.64205,1.430863 0.25683,0.568677 0.3302,0.715432 0.1651,0.348544 0.18345,0.495299 0.0183,0.146755 -0.0183,0.201788 -0.0183,0.03669 -0.0183,0.05503 -0.12841,0.256821 -0.51364,0.440265 -0.36689,0.201789 -0.89888,0.220133 -0.73378,0.01834 -1.06398,-0.1651 -0.33019,-0.165099 -0.44026,-0.348543 -0.0917,-0.1651 -0.0734,-0.146755 0,0 -0.20179,-0.421922 -0.18344,-0.421921 -0.44026,-1.008942 -0.25682,-0.605365 -0.47696,-1.100664 0,0 -0.25682,0 -0.23848,0 -0.56867,0 -0.3302,0 -0.58703,0 -0.23847,0 -0.23847,0 -0.0734,0.256822 -0.14676,0.642054 -0.0734,0.366888 -0.12841,0.660399 -0.055,0.29351 -0.055,0.29351 0,0 -0.0917,0.220133 -0.0734,0.220133 -0.42193,0.440266 -0.34854,0.220132 -1.15569,0.220132 -0.60537,0 -0.91722,-0.12841 -0.29351,-0.146756 -0.40358,-0.3302 -0.0917,-0.183444 -0.0917,-0.311854 0,-0.146756 0,-0.146756 0.0367,-0.183444 0.14675,-0.75212 0.12841,-0.587021 0.29351,-1.394175 0.18345,-0.825498 0.36689,-1.742718 0.20179,-0.91722 0.38523,-1.8160952 0.18345,-0.8988756 0.3302,-1.6326517 0.14676,-0.7521204 0.23848,-1.192386 0.0917,-0.45861 0.0917,-0.45861 z m 1.92617,2.8984153 q -0.0183,0.073378 -0.0367,0.2935104 l -0.0734,0.5136432 q -0.0367,0.4219212 -0.0917,0.898876 -0.055,0.476954 -0.11007,0.898875 -0.0367,0.220133 -0.055,0.275166 h 0.23847 q 0.22014,0 0.47696,-0.01834 0.25682,-0.01835 0.45861,-0.01835 -0.0734,-0.146755 -0.12841,-0.366888 -0.0367,-0.238477 -0.0917,-0.440265 -0.11007,-0.421921 -0.25683,-0.8805314 -0.12841,-0.45861 -0.23847,-0.8621868 -0.055,-0.2201328 -0.0917,-0.2935104 z"
         style="fill:#d90909"
         id="path76" />
      <path
         d="m 275.19626,14.762978 -0.84384,-7.9981589 q 0,0 -0.055,-0.1100664 -0.0367,-0.1100664 -0.0183,-0.2935104 0.0183,-0.183444 0.20179,-0.3852324 0.20178,-0.2017884 0.67874,-0.366888 0.64205,-0.2384772 1.50424,-0.3852324 0.88053,-0.1650996 1.85278,-0.091722 0.9906,0.073378 1.94451,0.5870208 0.56868,0.2935104 0.84384,0.8438424 0.27517,0.550332 0.3302,1.1740416 0.055,0.6237097 0,1.1923861 -0.0367,0.5686764 -0.12841,0.9355644 -0.0734,0.3668882 -0.0734,0.3668882 0,0 -0.12841,0.275166 -0.12841,0.275166 -0.4953,0.623709 -0.34854,0.3302 -1.02728,0.531988 l 2.6049,2.806693 q 0,0 0.12841,0.146755 0.12841,0.146756 0.20179,0.366889 0.0917,0.201788 -0.0367,0.421921 -0.11006,0.201788 -0.60536,0.348543 -0.51365,0.146756 -0.91722,0.07338 -0.38523,-0.07338 -0.64206,-0.238477 -0.23847,-0.1651 -0.36688,-0.311855 -0.12841,-0.146755 -0.12841,-0.146755 l -2.42147,-2.990138 0.60537,2.586561 q 0,0 0.0367,0.1651 0.0367,0.146755 -0.0367,0.348543 -0.0734,0.201789 -0.36689,0.366888 -0.29351,0.146755 -0.93556,0.146755 -0.64206,0 -1.00894,-0.146755 -0.34855,-0.146755 -0.4953,-0.348543 -0.14676,-0.201789 -0.18345,-0.348544 -0.0183,-0.146755 -0.0183,-0.146755 z m 1.74272,-8.0165033 0.44026,3.6872243 q 0,0 0.20179,0.01835 0.22013,0.01834 0.51364,-0.03669 0.31186,-0.05503 0.58702,-0.256822 0.29351,-0.2201326 0.47696,-0.6603982 0.18344,-0.45861 0.12841,-1.2474192 -0.055,-0.7521205 -0.29351,-1.1006641 -0.23848,-0.366888 -0.58702,-0.45861 -0.34855,-0.1100664 -0.73378,-0.055033 -0.38523,0.036689 -0.73377,0.1100664 z"
         style="fill:#d90909"
         id="path78" />
      <path
         d="m 283.41452,6.4529643 q 0,0 -0.0367,-0.1467552 -0.0367,-0.1650996 0.0183,-0.3852324 0.0734,-0.2201328 0.3302,-0.4035768 0.27517,-0.183444 0.86219,-0.2384772 0.58702,-0.055033 1.3208,-0.091722 0.75212,-0.036689 1.43086,-0.073378 0.69709,-0.036689 1.13735,-0.055033 0.44027,-0.018344 0.44027,-0.018344 0,0 0.23847,0.018344 0.25683,0 0.58703,0.073378 0.34854,0.055033 0.62371,0.2384772 0.27516,0.1650996 0.33019,0.4952988 0.055,0.3301992 -0.12841,0.5136432 -0.18344,0.183444 -0.44026,0.275166 -0.25682,0.073378 -0.45861,0.091722 -0.20179,0.018344 -0.20179,0.018344 l -2.9351,0.1650996 q 0,0 0.055,0.2384772 0.055,0.2384772 0.11007,0.550332 0.0734,0.2935105 0.0917,0.5136433 0.0183,0.2017884 0.0367,0.5319876 0.0183,0.3118548 0.0367,0.5686764 0.0183,0.2384772 0.0183,0.2384772 h 1.35748 q 0,0 0.20179,0.018344 0.20179,0 0.45861,0.073378 0.27517,0.055033 0.47696,0.183444 0.20179,0.1284108 0.22013,0.3852326 0.0183,0.330199 -0.25682,0.495299 -0.25682,0.165099 -0.55033,0.220132 -0.27517,0.03669 -0.34855,0.05503 -0.055,0 -0.29351,0.01834 -0.23847,0 -0.53198,0 -0.27517,0 -0.4953,0 -0.22014,0 -0.22014,0 0,0 0,0.275166 0.0183,0.256822 0.0367,0.605365 0.0183,0.348544 0,0.605365 0,0.238478 -0.0183,0.587021 -0.0183,0.330199 -0.0367,0.587021 -0.0183,0.238477 -0.0183,0.238477 l 2.4765,-0.09172 q 0,0 0.23848,0 0.23847,-0.01834 0.56867,0.03669 0.3302,0.05503 0.58702,0.220133 0.25682,0.165099 0.27517,0.495299 0.0367,0.330199 -0.18344,0.531987 -0.22014,0.201789 -0.51365,0.293511 -0.29351,0.09172 -0.53199,0.128411 -0.22013,0.01834 -0.22013,0.01834 l -3.96239,0.201788 q 0,0 -0.29351,0 -0.27517,0.01835 -0.64205,-0.03669 -0.36689,-0.07338 -0.64206,-0.275166 -0.27516,-0.220133 -0.25682,-0.660399 0.0367,-0.587021 0.0734,-1.83444 0.0367,-1.265764 -0.0367,-2.9534484 -0.0734,-1.6876848 -0.38523,-3.5404693 z"
         style="fill:#d90909"
         id="path80" />
    </g>
    <g
       id="g358668"
       transform="matrix(0.13229167,0,0,0.13229166,121.65295,2.8076704)">
      <g
         id="g358656">
        <path
           d="M 121.59,60.83 107.66,56.34 C 98.75,53.4 93.53,46.19 91.08,37.13 L 84.95,7.27 C 84.79,6.68 84.4,5.89 83.2,5.89 c -1.01,0 -1.59,0.79 -1.75,1.38 L 75.32,37.14 C 72.86,46.2 67.65,53.41 58.74,56.35 l -13.93,4.49 c -1.97,0.64 -2,3.42 -0.04,4.09 l 14.03,4.83 c 8.88,2.95 14.06,10.15 16.52,19.17 l 6.14,29.53 c 0.16,0.59 0.49,1.65 1.75,1.65 1.33,0 1.59,-1.06 1.75,-1.65 L 91.1,88.93 C 93.56,79.9 98.74,72.7 107.62,69.76 l 14.03,-4.83 c 1.94,-0.68 1.91,-3.46 -0.06,-4.1 z"
           fill="#fdd835"
           id="path358650" />
        <path
           d="m 122.91,62.08 c -0.22,-0.55 -0.65,-1.03 -1.32,-1.25 L 107.66,56.34 C 98.75,53.4 93.53,46.19 91.08,37.13 L 84.95,7.27 C 84.86,6.93 84.54,6.31 84.17,6.13 l 1.98,29.97 c 1.47,13.68 2.73,20.12 13.65,22 9.38,1.62 20.23,3.48 23.11,3.98 z"
           fill="#ffee58"
           id="path358652" />
        <path
           d="m 122.94,63.64 -24.16,5.54 c -8.51,2.16 -13.2,7.09 -13.2,19.99 l -2.37,30.94 c 0.81,-0.08 1.47,-0.52 1.75,-1.65 L 91.1,88.93 C 93.56,79.9 98.74,72.7 107.62,69.76 l 14.03,-4.83 c 0.66,-0.24 1.08,-0.73 1.29,-1.29 z"
           fill="#f4b400"
           id="path358654" />
      </g>
      <g
         id="g358664">
        <path
           d="M 41.81,86.81 C 33.48,84.06 32.72,80.96 31.32,75.73 L 27.83,63.49 c -0.21,-0.79 -2.27,-0.79 -2.49,0 L 22.97,74.8 c -1.41,5.21 -4.41,9.35 -9.53,11.04 l -8.16,3.54 c -1.13,0.37 -1.15,1.97 -0.02,2.35 l 8.22,2.91 c 5.1,1.69 8.08,5.83 9.5,11.02 l 2.37,10.82 c 0.22,0.79 2.27,0.79 2.48,0 l 2.78,-10.77 c 1.41,-5.22 3.57,-9.37 10.5,-11.07 l 7.72,-2.91 c 1.13,-0.39 1.12,-1.99 -0.02,-2.36 z"
           fill="#fdd835"
           id="path358658" />
        <path
           d="m 28.49,75.55 c 0.85,7.86 1.28,10.04 7.65,11.67 l 13.27,2.59 C 49.27,89.62 49.07,89.46 48.8,89.38 l -7,-2.57 C 34.49,84.31 32.47,81.13 31.1,74.77 29.73,68.41 28.27,64.26 28.27,64.26 c -0.51,-1.37 -1.24,-1.3 -1.24,-1.3 z"
           fill="#ffee58"
           id="path358660" />
        <path
           d="m 28.73,102.99 c 0,-7.41 4.05,-11.08 10.49,-11.08 L 49.24,91.5 c 0,0 -0.58,0.77 -1.59,1.01 l -6.54,2.13 c -5.55,2.23 -8.08,3.35 -9.8,10.94 0,0 -2.22,8.83 -2.64,9.76 -0.58,1.3 -1.27,1.57 -1.27,1.57 z"
           fill="#f4b400"
           id="path358662" />
      </g>
      <path
         d="m 59.74,28.14 c 0.56,-0.19 0.54,-0.99 -0.03,-1.15 l -7.72,-2.08 c -1.62,-0.44 -2.88,-1.69 -3.34,-3.3 L 45.61,9.06 C 45.46,8.45 44.59,8.45 44.44,9.07 l -2.86,12.5 c -0.44,1.66 -1.74,2.94 -3.4,3.37 l -7.67,1.99 c -0.57,0.15 -0.61,0.95 -0.05,1.15 l 8.09,2.8 c 1.45,0.5 2.57,1.68 3.01,3.15 l 2.89,11.59 c 0.15,0.6 1.01,0.61 1.16,0 L 48.6,33.99 c 0.45,-1.47 1.58,-2.64 3.04,-3.13 z"
         fill="#f4b400"
         stroke="#f4b400"
         stroke-miterlimit="10"
         id="path358666" />
    </g>
  </g>
  <metadata
     id="metadata23">
    <rdf:RDF>
      <cc:Work
         rdf:about="">
        <dc:title>redgnus</dc:title>
        <dc:creator>
          <cc:Agent>
            <dc:title>Pablo Hörtner</dc:title>
          </cc:Agent>
        </dc:creator>
        <dc:date>2021</dc:date>
        <dc:description>redgnus · 100% FREE SOFTWARE</dc:description>
        <dc:subject>
          <rdf:Bag>
            <rdf:li>logo</rdf:li>
          </rdf:Bag>
        </dc:subject>
        <cc:license
           rdf:resource="http://creativecommons.org/licenses/by-sa/4.0/" />
        <dc:rights>
          <cc:Agent>
            <dc:title>All rights reserved.</dc:title>
          </cc:Agent>
        </dc:rights>
      </cc:Work>
      <cc:License
         rdf:about="http://creativecommons.org/licenses/by-sa/4.0/">
        <cc:permits
           rdf:resource="http://creativecommons.org/ns#Reproduction" />
        <cc:permits
           rdf:resource="http://creativecommons.org/ns#Distribution" />
        <cc:requires
           rdf:resource="http://creativecommons.org/ns#Notice" />
        <cc:requires
           rdf:resource="http://creativecommons.org/ns#Attribution" />
        <cc:permits
           rdf:resource="http://creativecommons.org/ns#DerivativeWorks" />
        <cc:requires
           rdf:resource="http://creativecommons.org/ns#ShareAlike" />
      </cc:License>
    </rdf:RDF>
  </metadata>
</svg>
